<?xml version="1.0" encoding="UTF-8" standalone="no"?>
<!-- Created with Inkscape (http://www.inkscape.org/) -->

<svg
   xmlns:dc="http://purl.org/dc/elements/1.1/"
   xmlns:cc="http://creativecommons.org/ns#"
   xmlns:rdf="http://www.w3.org/1999/02/22-rdf-syntax-ns#"
   xmlns:svg="http://www.w3.org/2000/svg"
   xmlns="http://www.w3.org/2000/svg"
   xmlns:sodipodi="http://sodipodi.sourceforge.net/DTD/sodipodi-0.dtd"
   xmlns:inkscape="http://www.inkscape.org/namespaces/inkscape"
   version="1.1"
   id="svg7911"
   xml:space="preserve"
   width="288"
   height="288"
   viewBox="0 0 288 288"
   sodipodi:docname="correlated_flow.svg"
   inkscape:version="0.92.3 (2405546, 2018-03-11)"><metadata
     id="metadata7917"><rdf:RDF><cc:Work
         rdf:about=""><dc:format>image/svg+xml</dc:format><dc:type
           rdf:resource="http://purl.org/dc/dcmitype/StillImage" /><dc:title /></cc:Work></rdf:RDF></metadata><defs
     id="defs7915">





</defs><sodipodi:namedview
     pagecolor="#ffffff"
     bordercolor="#666666"
     borderopacity="1"
     objecttolerance="10"
     gridtolerance="10"
     guidetolerance="10"
     inkscape:pageopacity="0"
     inkscape:pageshadow="2"
     inkscape:window-width="1920"
     inkscape:window-height="1043"
     id="namedview7913"
     showgrid="false"
     inkscape:zoom="2"
     inkscape:cx="194.87131"
     inkscape:cy="133.85436"
     inkscape:window-x="1920"
     inkscape:window-y="0"
     inkscape:window-maximized="1"
     inkscape:current-layer="g7919"
     inkscape:snap-nodes="false" /><g
     id="g7919"
     inkscape:groupmode="layer"
     inkscape:label="singles_flow"
     transform="matrix(1.3333333,0,0,1.3333333,0,7.2e-6)"><rect
   style="opacity:1;fill:#e1b8eb;fill-opacity:1;fill-rule:nonzero;stroke:none;stroke-width:0.56692916;stroke-linecap:butt;stroke-linejoin:miter;stroke-miterlimit:4;stroke-dasharray:none;stroke-dashoffset:0;stroke-opacity:1;paint-order:stroke fill markers"
   id="rect1180"
   width="119.4375"
   height="21.375"
   x="60.9375"
   y="171.9375" /><path
   inkscape:connector-curvature="0"
   id="path977"
   d="m 162.42611,45.991523 c 12.47034,9.266949 31.60437,9.884884 31.60437,9.884884 h -31.312 z"
   style="fill:#aaeeff;stroke:none;stroke-width:0.75px;stroke-linecap:butt;stroke-linejoin:miter;stroke-opacity:1" /><path
   d="m 170.86975,41.664542 h 2.676 v 13.983051 h -2.676 z"
   style="fill:#00aad4;fill-opacity:1;fill-rule:nonzero;stroke:none;stroke-width:0.68271643"
   id="path979"
   inkscape:connector-curvature="0" /><path
   inkscape:connector-curvature="0"
   id="path973"
   d="m 91.819908,45.991523 c 12.470342,9.266949 31.604372,9.884884 31.604372,9.884884 h -31.312 z"
   style="fill:#aaeeff;stroke:none;stroke-width:0.75px;stroke-linecap:butt;stroke-linejoin:miter;stroke-opacity:1" /><path
   d="m 108.43423,41.664542 h 2.676 v 13.983051 h -2.676 z"
   style="fill:#00aad4;fill-opacity:1;fill-rule:nonzero;stroke:none;stroke-width:0.68271643"
   id="path975"
   inkscape:connector-curvature="0" /><path
   inkscape:connector-curvature="0"
   id="path969"
   d="m 67.631462,45.991523 c 12.470339,9.266949 31.604372,9.884884 31.604372,9.884884 h -31.312 z"
   style="fill:#aaeeff;stroke:none;stroke-width:0.75px;stroke-linecap:butt;stroke-linejoin:miter;stroke-opacity:1" /><path
   d="m 72.596497,41.664542 h 2.676 v 13.983051 h -2.676 z"
   style="fill:#00aad4;fill-opacity:1;fill-rule:nonzero;stroke:none;stroke-width:0.68271643"
   id="path971"
   inkscape:connector-curvature="0" /><path
   style="fill:#aaeeff;stroke:none;stroke-width:0.75px;stroke-linecap:butt;stroke-linejoin:miter;stroke-opacity:1"
   d="m 33.492586,45.991523 c 12.470339,9.266949 31.604372,9.884884 31.604372,9.884884 h -31.312 z"
   id="path965"
   inkscape:connector-curvature="0" /><g
   id="g7923"
   transform="translate(13.125)"><path
     inkscape:connector-curvature="0"
     id="path7925"
     style="fill:none;stroke:#000000;stroke-width:1.50341296;stroke-linecap:butt;stroke-linejoin:miter;stroke-miterlimit:4;stroke-dasharray:none;stroke-opacity:1"
     d="m 139.492,95.961 h 53.062 v 41.418 h -53.062 z" /></g><path
   inkscape:connector-curvature="0"
   id="path7927"
   style="fill:#e6e6e6;fill-opacity:1;fill-rule:nonzero;stroke:none"
   d="m 152.617,95.961 h 53.062 v 41.418 h -53.062 z" /><g
   id="g7929"
   transform="translate(13.125)"><path
     inkscape:connector-curvature="0"
     id="path7931"
     style="fill:none;stroke:#000000;stroke-width:1.5;stroke-linecap:butt;stroke-linejoin:miter;stroke-miterlimit:4;stroke-dasharray:none;stroke-opacity:1"
     d="m 192.57,95.082 c 0,3.301 -11.886,5.977 -26.547,5.977 -14.664,0 -26.55,-2.676 -26.55,-5.977 0,-3.301 11.886,-5.977 26.55,-5.977 14.661,0 26.547,2.676 26.547,5.977 z" /></g><path
   inkscape:connector-curvature="0"
   id="path7933"
   style="fill:#e6e6e6;fill-opacity:1;fill-rule:nonzero;stroke:none"
   d="m 205.695,95.082 c 0,3.301 -11.886,5.977 -26.547,5.977 -14.664,0 -26.55,-2.676 -26.55,-5.977 0,-3.301 11.886,-5.977 26.55,-5.977 14.661,0 26.547,2.676 26.547,5.977 z" /><g
   id="g7935"
   transform="translate(13.125)"><path
     inkscape:connector-curvature="0"
     id="path7937"
     style="fill:none;stroke:#000000;stroke-width:1.5;stroke-linecap:butt;stroke-linejoin:miter;stroke-miterlimit:4;stroke-dasharray:none;stroke-opacity:1"
     d="m 192.57,137.586 c 0,3.301 -11.886,5.976 -26.547,5.976 -14.664,0 -26.55,-2.675 -26.55,-5.976 0,-3.301 11.886,-5.977 26.55,-5.977 14.661,0 26.547,2.676 26.547,5.977 z" /></g><path
   inkscape:connector-curvature="0"
   id="path7939"
   style="fill:#e6e6e6;fill-opacity:1;fill-rule:nonzero;stroke:none"
   d="m 205.695,137.586 c 0,3.301 -11.886,5.976 -26.547,5.976 -14.664,0 -26.55,-2.675 -26.55,-5.976 0,-3.301 11.886,-5.977 26.55,-5.977 14.661,0 26.547,2.676 26.547,5.977 z" /><path
   inkscape:connector-curvature="0"
   id="path7941"
   style="fill:#000000;fill-opacity:1;fill-rule:nonzero;stroke:none"
   d="m 191.828,16.044813 v 6.196 H 20.723 v 3.215 h 171.105 v 6.191 l 13.512,-7.801 z" /><path
   inkscape:connector-curvature="0"
   id="path7943"
   style="fill:#bc5fd3;fill-opacity:1;fill-rule:nonzero;stroke:none;stroke-width:0.68271643"
   d="m 161.21622,8.2577621 h 2.68 V 22.240813 h -2.68 z" /><text
   id="text7947"
   style="font-style:oblique;font-variant:normal;font-size:10px;font-family:'CMU Sans Serif';-inkscape-font-specification:CMUSansSerif-Oblique;writing-mode:lr-tb;fill:#000000;fill-opacity:1;fill-rule:nonzero;stroke:none"
   x="176.57344"
   y="13.54121"><tspan
     id="tspan7945"
     sodipodi:role="line"
     y="13.54121"
     x="176.57344 180.92345 184.05344 192.74344">time</tspan></text>

<path
   inkscape:connector-curvature="0"
   id="path7949"
   style="fill:#bc5fd3;fill-opacity:1;fill-rule:nonzero;stroke:none;stroke-width:0.68271643"
   d="m 90.996,8.2577621 h 2.68 V 22.240813 h -2.68 z" /><path
   inkscape:connector-curvature="0"
   id="path7951"
   style="fill:#bc5fd3;fill-opacity:1;fill-rule:nonzero;stroke:none;stroke-width:0.68271643"
   d="m 65.812,8.2577621 h 2.676 V 22.240813 h -2.676 z" /><path
   inkscape:connector-curvature="0"
   id="path7953"
   style="fill:#bc5fd3;fill-opacity:1;fill-rule:nonzero;stroke:none;stroke-width:0.68271643"
   d="M 31.824,8.2577621 H 34.5 V 22.240813 h -2.676 z" /><path
   inkscape:connector-curvature="0"
   id="path7973"
   style="fill:#bc5fd3;fill-opacity:1;fill-rule:nonzero;stroke:none"
   d="m 164.203,119.039 -3.945,-1.652 -2.199,3.668 0.351,-4.262 -4.168,-0.961 4.164,-0.98 -0.379,-4.262 2.223,3.656 3.934,-1.676 -2.789,3.242 z" /><path
   inkscape:connector-curvature="0"
   id="path7975"
   style="fill:#bc5fd3;fill-opacity:1;fill-rule:nonzero;stroke:none"
   d="m 166.457,127.855 -3.945,-1.652 -2.199,3.668 0.351,-4.262 -4.168,-0.961 4.164,-0.98 -0.379,-4.262 2.223,3.656 3.933,-1.675 -2.789,3.242 z" /><path
   inkscape:connector-curvature="0"
   id="path7977"
   style="fill:#bc5fd3;fill-opacity:1;fill-rule:nonzero;stroke:none"
   d="m 198.277,136.074 -3.945,-1.652 -2.203,3.668 0.355,-4.262 -4.171,-0.957 4.164,-0.984 -0.375,-4.262 2.218,3.656 3.938,-1.672 -2.793,3.239 z" /><g
   id="g8025"><path
     inkscape:connector-curvature="0"
     id="path8027"
     style="fill:none;stroke:#000000;stroke-width:0.56692897;stroke-linecap:butt;stroke-linejoin:miter;stroke-miterlimit:4;stroke-dasharray:1.13385793,1.13385793;stroke-dashoffset:0;stroke-opacity:1"
     d="m 9.902,70.938 h 201.25 v 89.125 H 9.902 Z" /></g><g
   id="g8029"><path
     inkscape:connector-curvature="0"
     id="path8031"
     style="fill:none;stroke:#000000;stroke-width:0.56692898;stroke-linecap:butt;stroke-linejoin:miter;stroke-miterlimit:4;stroke-dasharray:1.133858, 1.133858;stroke-dashoffset:0;stroke-opacity:1"
     d="m 9.68,167.203 h 201.473 v 41.344 H 9.68 Z" /></g><path
   inkscape:connector-curvature="0"
   id="path7955"
   style="fill:#000000;fill-opacity:1;fill-rule:nonzero;stroke:none;stroke-width:1"
   d="m 25.037921,81.55805 h 2.013633 v 51.87856 h -2.013633 z" /><path
   inkscape:connector-curvature="0"
   id="path7957"
   style="fill:#000000;fill-opacity:1;fill-rule:nonzero;stroke:none;stroke-width:1"
   d="M 25.037921,131.42248 H 76.90346 v 2.01413 H 25.037921 Z" /><text
   id="text7961"
   style="font-style:oblique;font-variant:normal;font-size:9.13438797px;font-family:'CMU Sans Serif';-inkscape-font-specification:CMUSansSerif-Oblique;writing-mode:lr-tb;fill:#000000;fill-opacity:1;fill-rule:nonzero;stroke:none;stroke-width:1"
   x="41.752487"
   y="144.16678"
   transform="scale(0.99987443,1.0001256)"><tspan
     id="tspan7959"
     y="144.16678"
     x="41.752487"
     style="font-size:9.13438797px;stroke-width:1">E</tspan></text>
<text
   id="text7965"
   style="font-style:oblique;font-variant:normal;font-size:9.13438797px;font-family:'CMU Sans Serif';-inkscape-font-specification:CMUSansSerif-Oblique;writing-mode:lr-tb;fill:#000000;fill-opacity:1;fill-rule:nonzero;stroke:none;stroke-width:1"
   transform="matrix(0,-1.0001256,0.99987443,0,0,0)"
   x="-116.19061"
   y="19.802753"><tspan
     id="tspan7963"
     sodipodi:role="line"
     y="19.802753"
     x="-116.19061 -108.04961 -102.76308 -95.090195"
     style="stroke-width:1">P(E)</tspan></text>
<path
   inkscape:connector-curvature="0"
   id="path7967"
   style="fill:#000000;fill-opacity:1;fill-rule:nonzero;stroke:none;stroke-width:1"
   d="m 59.651671,104.09968 c -1.344567,-0.18259 -2.443863,-0.0821 -3.39278,0.21959 -1.897029,0.60328 -3.112929,1.97633 -4.488859,3.29952 -1.372712,1.32238 -2.902238,2.62064 -5.462704,3.26413 -2.556447,0.6443 -6.357742,0.74162 -11.867089,-0.68773 l -0.0064,0.61534 c 5.588155,1.45188 9.335571,1.49291 12.062501,0.80758 2.726125,-0.68773 4.4004,-2.10503 5.802063,-3.45315 1.397641,-1.3441 2.525084,-2.58846 4.192926,-3.11934 1.665429,-0.53169 4.043349,-0.39012 7.825346,1.22826 l 0.571762,-0.6097 c -1.934857,-0.82931 -3.8922,-1.38271 -5.236766,-1.5645 z" /><path
   inkscape:connector-curvature="0"
   id="path7969"
   style="fill:#000000;fill-opacity:1;fill-rule:nonzero;stroke:none;stroke-width:1"
   d="m 34.440239,110.22334 v 21.83458 h 0.599909 v -21.67773 z" /><path
   inkscape:connector-curvature="0"
   id="path7971"
   style="fill:#000000;fill-opacity:1;fill-rule:nonzero;stroke:none;stroke-width:1"
   d="m 64.282063,105.66418 h 0.606341 v 26.84258 h -0.606341 z" /><g
   id="g7981"
   transform="matrix(0.80416677,0,0,0.8043687,-12.217516,16.413839)"
   style="fill:#bc5fd3;fill-opacity:1;stroke:#bc5fd3;stroke-width:1.24336708;stroke-opacity:1"><path
     inkscape:connector-curvature="0"
     id="path7983"
     style="fill:#bc5fd3;fill-opacity:1;stroke:#bc5fd3;stroke-width:1.06374896;stroke-linecap:butt;stroke-linejoin:miter;stroke-miterlimit:4;stroke-dasharray:none;stroke-opacity:1"
     d="M 89.535,107.539 V 75.895" /></g><g
   transform="matrix(0,-0.8043687,0.80416677,0,-12.217517,16.413839)"
   id="g7985"
   style="fill:#bc5fd3;fill-opacity:1;stroke:#bc5fd3;stroke-width:1.24336708;stroke-opacity:1"><path
     inkscape:connector-curvature="0"
     id="path7987"
     style="fill:#bc5fd3;fill-opacity:1;fill-rule:evenodd;stroke:#bc5fd3;stroke-width:0.39890572;stroke-linecap:butt;stroke-linejoin:round;stroke-miterlimit:4;stroke-dasharray:none;stroke-opacity:1"
     d="m -103.062,91.609 -5.61,-2.062 5.61,-2.063 c -0.895,1.215 -0.891,2.883 0,4.125 z" /></g><g
   id="g7989"
   transform="matrix(0.80416677,0,0,0.8043687,-12.217516,16.413839)"
   style="fill:#bc5fd3;fill-opacity:1;stroke:#bc5fd3;stroke-width:1.24336708;stroke-opacity:1"><path
     inkscape:connector-curvature="0"
     id="path7991"
     style="fill:#bc5fd3;fill-opacity:1;stroke:#bc5fd3;stroke-width:1.06374896;stroke-linecap:butt;stroke-linejoin:miter;stroke-miterlimit:4;stroke-dasharray:none;stroke-opacity:1"
     d="M 83.535,107.539 V 75.895" /></g><g
   transform="matrix(0,-0.8043687,0.80416677,0,-12.217517,16.413839)"
   id="g7993"
   style="fill:#bc5fd3;fill-opacity:1;stroke:#bc5fd3;stroke-width:1.24336708;stroke-opacity:1"><path
     inkscape:connector-curvature="0"
     id="path7995"
     style="fill:#bc5fd3;fill-opacity:1;fill-rule:evenodd;stroke:#bc5fd3;stroke-width:0.39890572;stroke-linecap:butt;stroke-linejoin:round;stroke-miterlimit:4;stroke-dasharray:none;stroke-opacity:1"
     d="m -103.062,85.609 -5.61,-2.062 5.61,-2.063 c -0.895,1.215 -0.891,2.883 0,4.125 z" /></g><g
   id="g7997"
   transform="matrix(0.80416677,0,0,0.8043687,-12.217516,16.413839)"
   style="fill:#bc5fd3;fill-opacity:1;stroke:#bc5fd3;stroke-width:1.24336708;stroke-opacity:1"><path
     inkscape:connector-curvature="0"
     id="path7999"
     style="fill:#bc5fd3;fill-opacity:1;stroke:#bc5fd3;stroke-width:1.06374896;stroke-linecap:butt;stroke-linejoin:miter;stroke-miterlimit:4;stroke-dasharray:none;stroke-opacity:1"
     d="M 73.223,115.602 V 83.957" /></g><g
   transform="matrix(0,-0.8043687,0.80416677,0,-12.217517,16.413839)"
   id="g8001"
   style="fill:#bc5fd3;fill-opacity:1;stroke:#bc5fd3;stroke-width:1.24336708;stroke-opacity:1"><path
     inkscape:connector-curvature="0"
     id="path8003"
     style="fill:#bc5fd3;fill-opacity:1;fill-rule:evenodd;stroke:#bc5fd3;stroke-width:0.39890572;stroke-linecap:butt;stroke-linejoin:round;stroke-miterlimit:4;stroke-dasharray:none;stroke-opacity:1"
     d="m -111.125,75.297 -5.609,-2.063 5.609,-2.062 c -0.895,1.215 -0.891,2.883 0,4.125 z" /></g><g
   id="g8005"
   transform="matrix(0.80416677,0,0,0.8043687,-12.217516,16.413839)"
   style="fill:#bc5fd3;fill-opacity:1;stroke:#bc5fd3;stroke-width:1.24336708;stroke-opacity:1"><path
     inkscape:connector-curvature="0"
     id="path8007"
     style="fill:#bc5fd3;fill-opacity:1;stroke:#bc5fd3;stroke-width:1.06374896;stroke-linecap:butt;stroke-linejoin:miter;stroke-miterlimit:4;stroke-dasharray:none;stroke-opacity:1"
     d="M 60.266,114.57 V 82.926" /></g><g
   transform="matrix(0,-0.8043687,0.80416677,0,-12.217517,16.413839)"
   id="g8009"
   style="fill:#bc5fd3;fill-opacity:1;stroke:#bc5fd3;stroke-width:1.24336708;stroke-opacity:1"><path
     inkscape:connector-curvature="0"
     id="path8011"
     style="fill:#bc5fd3;fill-opacity:1;fill-rule:evenodd;stroke:#bc5fd3;stroke-width:0.39890572;stroke-linecap:butt;stroke-linejoin:round;stroke-miterlimit:4;stroke-dasharray:none;stroke-opacity:1"
     d="m -110.098,62.336 -5.605,-2.063 5.605,-2.062 c -0.894,1.219 -0.89,2.883 0,4.125 z" /></g><g
   id="g8041"><path
     inkscape:connector-curvature="0"
     id="path8043"
     style="fill:none;stroke:#000000;stroke-width:0.56692898;stroke-linecap:butt;stroke-linejoin:miter;stroke-miterlimit:4;stroke-dasharray:none;stroke-opacity:1"
     d="M 9.887,153.941 C -1.945,166.676 6.145,171.625 6.145,171.625" /></g><g
   transform="matrix(1,0.611246,-0.611246,1,0,0)"
   id="g8045"><path
     inkscape:connector-curvature="0"
     id="path8047"
     style="fill:#000000;fill-opacity:1;fill-rule:evenodd;stroke:#000000;stroke-width:0.51596898;stroke-linecap:butt;stroke-linejoin:miter;stroke-miterlimit:4;stroke-dasharray:none;stroke-opacity:1"
     d="m 83.078,122.207 -3.35,1.934 v -3.867 z" /></g><path
   d="m 191.828,49.451593 v 6.196 H 20.723 v 3.215 h 171.105 v 6.191 l 13.512,-7.801 z"
   style="fill:#000000;fill-opacity:1;fill-rule:nonzero;stroke:none"
   id="path939"
   inkscape:connector-curvature="0" /><path
   d="m 161.21622,41.664542 h 2.68 v 13.983051 h -2.68 z"
   style="fill:#bc5fd3;fill-opacity:1;fill-rule:nonzero;stroke:none;stroke-width:0.68271643"
   id="path941"
   inkscape:connector-curvature="0" /><text
   y="46.94799"
   x="176.57344"
   style="font-style:oblique;font-variant:normal;font-size:10px;font-family:'CMU Sans Serif';-inkscape-font-specification:CMUSansSerif-Oblique;writing-mode:lr-tb;fill:#000000;fill-opacity:1;fill-rule:nonzero;stroke:none"
   id="text945"><tspan
     x="176.57344 180.92345 184.05344 192.74344"
     y="46.94799"
     sodipodi:role="line"
     id="tspan943">time</tspan></text>

<path
   d="m 90.996,41.664542 h 2.68 v 13.983051 h -2.68 z"
   style="fill:#bc5fd3;fill-opacity:1;fill-rule:nonzero;stroke:none;stroke-width:0.68271643"
   id="path947"
   inkscape:connector-curvature="0" /><path
   d="m 65.812,41.664542 h 2.676 v 13.983051 h -2.676 z"
   style="fill:#bc5fd3;fill-opacity:1;fill-rule:nonzero;stroke:none;stroke-width:0.68271643"
   id="path949"
   inkscape:connector-curvature="0" /><path
   d="M 31.824,41.664542 H 34.5 v 13.983051 h -2.676 z"
   style="fill:#bc5fd3;fill-opacity:1;fill-rule:nonzero;stroke:none;stroke-width:0.68271643"
   id="path951"
   inkscape:connector-curvature="0" /><g
   transform="matrix(1.0007951,0,0,0.5145328,-0.08782517,35.14723)"
   id="g955" /><rect
   style="opacity:1;fill:none;fill-opacity:1;fill-rule:nonzero;stroke:#000000;stroke-width:0.56692916;stroke-linecap:butt;stroke-linejoin:miter;stroke-miterlimit:4;stroke-dasharray:1.1338583, 1.1338583;stroke-dashoffset:0;stroke-opacity:1;paint-order:stroke fill markers"
   id="rect961"
   width="201.25658"
   height="30.88983"
   x="9.9020004"
   y="3.2033858" /><rect
   y="36.838978"
   x="9.9020004"
   height="30.88983"
   width="201.25658"
   id="rect963"
   style="opacity:1;fill:none;fill-opacity:1;fill-rule:nonzero;stroke:#000000;stroke-width:0.56692916;stroke-linecap:butt;stroke-linejoin:miter;stroke-miterlimit:4;stroke-dasharray:1.1338583, 1.1338583;stroke-dashoffset:0;stroke-opacity:1;paint-order:stroke fill markers" /><path
   inkscape:connector-curvature="0"
   id="path967"
   style="fill:#00aad4;fill-opacity:1;fill-rule:nonzero;stroke:none;stroke-width:0.68271643"
   d="m 43.877774,41.664542 h 2.676 v 13.983051 h -2.676 z" /><g
   id="g983"
   transform="translate(0,-30.498475)"><path
     d="M 9.887,57.379 C -1.945,70.113 6.145,75.062 6.145,75.062"
     style="fill:none;stroke:#000000;stroke-width:0.56692898;stroke-linecap:butt;stroke-linejoin:miter;stroke-miterlimit:4;stroke-dasharray:none;stroke-opacity:1"
     id="path981"
     inkscape:connector-curvature="0" /></g><g
   id="g987"
   transform="matrix(1,0.611246,-0.611246,1,0,-30.498475)"><path
     d="m 40.108,51.91 -3.349,1.934 v -3.867 z"
     style="fill:#000000;fill-opacity:1;fill-rule:evenodd;stroke:#000000;stroke-width:0.51596898;stroke-linecap:butt;stroke-linejoin:miter;stroke-miterlimit:4;stroke-dasharray:none;stroke-opacity:1"
     id="path985"
     inkscape:connector-curvature="0" /></g><g
   id="g1178"><path
   inkscape:connector-curvature="0"
   id="path1039"
   style="fill:#000000;fill-opacity:1;fill-rule:nonzero;stroke:none;stroke-width:1"
   d="m 90.775933,78.783204 h 2.103385 v 54.177186 h -2.103385 z" /><path
   inkscape:connector-curvature="0"
   id="path1041"
   style="fill:#000000;fill-opacity:1;fill-rule:nonzero;stroke:none;stroke-width:1"
   d="m 90.775933,130.85701 h 54.177177 v 2.10338 H 90.775933 Z" /><text
   id="text1045"
   style="font-style:oblique;font-variant:normal;font-size:9.54030895px;font-family:'CMU Sans Serif';-inkscape-font-specification:CMUSansSerif-Oblique;writing-mode:lr-tb;fill:#000000;fill-opacity:1;fill-rule:nonzero;stroke:none;stroke-width:1"
   x="108.22998"
   y="144.18489"><tspan
     id="tspan1043"
     y="144.18489"
     x="108.22998"
     style="font-size:9.54030895px;stroke-width:1">E</tspan></text>

<text
   id="text1049"
   style="font-style:oblique;font-variant:normal;font-size:9.54030895px;font-family:'CMU Sans Serif';-inkscape-font-specification:CMUSansSerif-Oblique;writing-mode:lr-tb;fill:#000000;fill-opacity:1;fill-rule:nonzero;stroke:none;stroke-width:1"
   transform="rotate(-90)"
   x="-114.96548"
   y="85.30484"><tspan
     style="stroke-width:1"
     id="tspan1047"
     sodipodi:role="line"
     y="85.30484"
     x="-114.96548 -106.4627 -100.94125 -92.927391">P(E)</tspan></text>

<path
   sodipodi:nodetypes="ccccc"
   inkscape:connector-curvature="0"
   id="path1053"
   style="fill:#000000;fill-opacity:1;fill-rule:nonzero;stroke:none;stroke-width:1"
   d="m 100.59731,125.40413 v 6.11648 h 0.62665 v -6.26959 z" /><path
   sodipodi:nodetypes="ccccc"
   inkscape:connector-curvature="0"
   id="path1055"
   style="fill:#000000;fill-opacity:1;fill-rule:nonzero;stroke:none;stroke-width:1"
   d="m 131.649,128.58148 0.63337,0.34588 v 3.06198 H 131.649 Z" /><g
   id="g1059"
   transform="matrix(0.84000839,0,0,0.84000839,49.26066,15.364373)"
   style="fill:#00aad4;fill-opacity:1;stroke:#00aad4;stroke-width:1.19046438;stroke-opacity:1"><path
     inkscape:connector-curvature="0"
     id="path1057"
     style="fill:#00aad4;fill-opacity:1;stroke:#00aad4;stroke-width:1.01848865;stroke-linecap:butt;stroke-linejoin:miter;stroke-miterlimit:4;stroke-dasharray:none;stroke-opacity:1"
     d="M 89.535,107.539 V 75.895" /></g><g
   transform="matrix(0,-0.84000839,0.84000839,0,49.260658,15.364373)"
   id="g1063"
   style="fill:#00aad4;fill-opacity:1;stroke:#00aad4;stroke-width:1.19046438;stroke-opacity:1"><path
     inkscape:connector-curvature="0"
     id="path1061"
     style="fill:#00aad4;fill-opacity:1;fill-rule:evenodd;stroke:#00aad4;stroke-width:0.38193309;stroke-linecap:butt;stroke-linejoin:round;stroke-miterlimit:4;stroke-dasharray:none;stroke-opacity:1"
     d="m -103.062,91.609 -5.61,-2.062 5.61,-2.063 c -0.895,1.215 -0.891,2.883 0,4.125 z" /></g><g
   id="g1067"
   transform="matrix(0.84000839,0,0,0.84000839,51.860022,10.752602)"
   style="fill:#00aad4;fill-opacity:1;stroke:#00aad4;stroke-width:1.19046438;stroke-opacity:1"><path
     inkscape:connector-curvature="0"
     id="path1065"
     style="fill:#00aad4;fill-opacity:1;stroke:#00aad4;stroke-width:1.01848865;stroke-linecap:butt;stroke-linejoin:miter;stroke-miterlimit:4;stroke-dasharray:none;stroke-opacity:1"
     d="M 83.535,107.539 V 75.895" /></g><g
   transform="matrix(0,-0.84000839,0.84000839,0,51.86002,10.752602)"
   id="g1071"
   style="fill:#00aad4;fill-opacity:1;stroke:#00aad4;stroke-width:1.19046438;stroke-opacity:1"><path
     inkscape:connector-curvature="0"
     id="path1069"
     style="fill:#00aad4;fill-opacity:1;fill-rule:evenodd;stroke:#00aad4;stroke-width:0.38193309;stroke-linecap:butt;stroke-linejoin:round;stroke-miterlimit:4;stroke-dasharray:none;stroke-opacity:1"
     d="m -103.062,85.609 -5.61,-2.062 5.61,-2.063 c -0.895,1.215 -0.891,2.883 0,4.125 z" /></g><g
   id="g1075"
   transform="matrix(0.84000839,0,0,0.84000839,57.235754,18.499981)"
   style="fill:#00aad4;fill-opacity:1;stroke:#00aad4;stroke-width:1.19046438;stroke-opacity:1"><path
     inkscape:connector-curvature="0"
     id="path1073"
     style="fill:#00aad4;fill-opacity:1;stroke:#00aad4;stroke-width:1.01848865;stroke-linecap:butt;stroke-linejoin:miter;stroke-miterlimit:4;stroke-dasharray:none;stroke-opacity:1"
     d="M 73.223,115.602 V 83.957" /></g><g
   transform="matrix(0,-0.84000839,0.84000839,0,57.235753,18.499981)"
   id="g1079"
   style="fill:#00aad4;fill-opacity:1;stroke:#00aad4;stroke-width:1.19046438;stroke-opacity:1"><path
     inkscape:connector-curvature="0"
     id="path1077"
     style="fill:#00aad4;fill-opacity:1;fill-rule:evenodd;stroke:#00aad4;stroke-width:0.38193309;stroke-linecap:butt;stroke-linejoin:round;stroke-miterlimit:4;stroke-dasharray:none;stroke-opacity:1"
     d="m -111.125,75.297 -5.609,-2.063 5.609,-2.062 c -0.895,1.215 -0.891,2.883 0,4.125 z" /></g><g
   id="g1083"
   transform="matrix(0.84000839,0,0,0.84000839,59.92362,25.773031)"
   style="fill:#00aad4;fill-opacity:1;stroke:#00aad4;stroke-width:1.19046438;stroke-opacity:1"><path
     inkscape:connector-curvature="0"
     id="path1081"
     style="fill:#00aad4;fill-opacity:1;stroke:#00aad4;stroke-width:1.01848865;stroke-linecap:butt;stroke-linejoin:miter;stroke-miterlimit:4;stroke-dasharray:none;stroke-opacity:1"
     d="M 60.266,114.57 V 82.926" /></g><g
   transform="matrix(0,-0.84000839,0.84000839,0,59.923619,25.773031)"
   id="g1087"
   style="fill:#00aad4;fill-opacity:1;stroke:#00aad4;stroke-width:1.19046438;stroke-opacity:1"><path
     inkscape:connector-curvature="0"
     id="path1085"
     style="fill:#00aad4;fill-opacity:1;fill-rule:evenodd;stroke:#00aad4;stroke-width:0.38193309;stroke-linecap:butt;stroke-linejoin:round;stroke-miterlimit:4;stroke-dasharray:none;stroke-opacity:1"
     d="m -110.098,62.336 -5.605,-2.063 5.605,-2.062 c -0.894,1.219 -0.89,2.883 0,4.125 z" /></g><path
   inkscape:connector-curvature="0"
   id="path1089"
   d="m 132.07954,129.1991 c -5.62603,-4.21953 -6.38788,-9.25951 -6.38788,-9.25951 0,0 -2.6372,-17.81574 -3.51627,-14.47528 -0.87906,3.34044 -0.0586,16.0576 -5.2744,17.69853 -5.21578,1.64092 -10.60738,2.40278 -13.18598,2.34417 -2.57859,-0.0586 -2.93021,0.17581 -2.93021,0.17581"
   style="fill:none;stroke:#000000;stroke-width:0.56692916;stroke-linecap:butt;stroke-linejoin:miter;stroke-miterlimit:4;stroke-dasharray:none;stroke-opacity:1" /></g><path
   inkscape:connector-curvature="0"
   id="path7979"
   style="fill:#bc5fd3;fill-opacity:1;fill-rule:nonzero;stroke:none"
   d="m 190.742,109.242 -3.945,-1.652 -2.203,3.668 0.355,-4.266 -4.172,-0.957 4.164,-0.98 -0.375,-4.262 2.219,3.656 3.938,-1.676 -2.793,3.243 z" /><path
   d="m 200.117,114.58575 -3.945,-1.652 -2.203,3.668 0.355,-4.266 -4.172,-0.957 4.164,-0.98 -0.375,-4.262 2.219,3.656 3.938,-1.676 -2.793,3.243 z"
   style="fill:#00aad4;fill-opacity:1;fill-rule:nonzero;stroke:none"
   id="path1091"
   inkscape:connector-curvature="0" /><path
   inkscape:connector-curvature="0"
   id="path1118"
   style="fill:#00aad4;fill-opacity:1;fill-rule:nonzero;stroke:none"
   d="m 196.441,138.621 -3.945,-1.652 -2.203,3.668 0.355,-4.266 -4.172,-0.957 4.164,-0.98 -0.375,-4.262 2.219,3.656 3.938,-1.676 -2.793,3.243 z" /><path
   inkscape:connector-curvature="0"
   id="path1120"
   style="fill:#00aad4;fill-opacity:1;fill-rule:nonzero;stroke:none"
   d="m 167.7765,115.316 -3.945,-1.652 -2.203,3.668 0.355,-4.266 -4.172,-0.957 4.164,-0.98 -0.375,-4.262 2.219,3.656 3.938,-1.676 -2.793,3.243 z" /><path
   d="m 160.277,125.5315 -3.945,-1.652 -2.203,3.668 0.355,-4.266 -4.172,-0.957 4.164,-0.98 -0.375,-4.262 2.219,3.656 3.938,-1.676 -2.793,3.243 z"
   style="fill:#00aad4;fill-opacity:1;fill-rule:nonzero;stroke:none"
   id="path1122"
   inkscape:connector-curvature="0" /><rect
   y="194.25"
   x="60.937496"
   height="10.6875"
   width="133.3125"
   id="rect1191"
   style="opacity:1;fill:#a5eeff;fill-opacity:1;fill-rule:nonzero;stroke:none;stroke-width:0.5669291;stroke-linecap:butt;stroke-linejoin:miter;stroke-miterlimit:4;stroke-dasharray:none;stroke-dashoffset:0;stroke-opacity:1;paint-order:stroke fill markers" /><text
   id="text8019"
   style="font-variant:normal;font-size:9px;font-family:Inconsolata-dz;-inkscape-font-specification:Inconsolata-dz;writing-mode:lr-tb;fill:#000000;fill-opacity:1;fill-rule:nonzero;stroke:none"
   x="14.651651"
   y="179.62492"><tspan
     id="tspan8017"
     sodipodi:role="line"
     x="14.651651"
     y="179.62492">Event 0: 83671 ns, 3.51 MeV,</tspan><tspan
     sodipodi:role="line"
     x="14.651651"
     y="190.87492"
     id="tspan1187">         (426mm, -83mm, 291mm)</tspan><tspan
     sodipodi:role="line"
     x="14.651651"
     y="202.12492"
     id="tspan1189">Event 1: 261297 ns, 2.33 MeV, ...</tspan></text>

<g
   transform="translate(0,5.0336417)"
   id="g1102"><path
     inkscape:connector-curvature="0"
     id="path1100"
     style="fill:none;stroke:#000000;stroke-width:0.56692898;stroke-linecap:butt;stroke-linejoin:miter;stroke-miterlimit:4;stroke-dasharray:none;stroke-opacity:1"
     d="M 9.887,57.379 C -1.945,70.113 6.145,75.062 6.145,75.062" /></g><g
   transform="matrix(1,0.611246,-0.611246,1,0,5.0336417)"
   id="g1106"><path
     inkscape:connector-curvature="0"
     id="path1104"
     style="fill:#000000;fill-opacity:1;fill-rule:evenodd;stroke:#000000;stroke-width:0.51596898;stroke-linecap:butt;stroke-linejoin:miter;stroke-miterlimit:4;stroke-dasharray:none;stroke-opacity:1"
     d="m 40.108,51.91 -3.349,1.934 v -3.867 z" /></g></g></svg>