<?xml version="1.0" encoding="UTF-8" standalone="no"?>
<!-- Created with Inkscape (http://www.inkscape.org/) -->

<svg
   xmlns:dc="http://purl.org/dc/elements/1.1/"
   xmlns:cc="http://creativecommons.org/ns#"
   xmlns:rdf="http://www.w3.org/1999/02/22-rdf-syntax-ns#"
   xmlns:svg="http://www.w3.org/2000/svg"
   xmlns="http://www.w3.org/2000/svg"
   xmlns:sodipodi="http://sodipodi.sourceforge.net/DTD/sodipodi-0.dtd"
   xmlns:inkscape="http://www.inkscape.org/namespaces/inkscape"
   version="1.1"
   id="svg7911"
   xml:space="preserve"
   width="288"
   height="288"
   viewBox="0 0 288 288"
   sodipodi:docname="singles_flow.svg"
   inkscape:version="0.92.3 (2405546, 2018-03-11)"><metadata
     id="metadata7917"><rdf:RDF><cc:Work
         rdf:about=""><dc:format>image/svg+xml</dc:format><dc:type
           rdf:resource="http://purl.org/dc/dcmitype/StillImage" /><dc:title /></cc:Work></rdf:RDF></metadata><defs
     id="defs7915" /><sodipodi:namedview
     pagecolor="#ffffff"
     bordercolor="#666666"
     borderopacity="1"
     objecttolerance="10"
     gridtolerance="10"
     guidetolerance="10"
     inkscape:pageopacity="0"
     inkscape:pageshadow="2"
     inkscape:window-width="960"
     inkscape:window-height="1043"
     id="namedview7913"
     showgrid="false"
     inkscape:zoom="1.6388889"
     inkscape:cx="138.54886"
     inkscape:cy="224.33599"
     inkscape:window-x="2880"
     inkscape:window-y="0"
     inkscape:window-maximized="0"
     inkscape:current-layer="g7921"
     inkscape:snap-nodes="false" /><g
     id="g7919"
     inkscape:groupmode="layer"
     inkscape:label="singles_flow"
     transform="matrix(1.3333333,0,0,1.3333333,0,7.2e-6)"><g
       id="g7921"><rect
   y="194.15741"
   x="61.774353"
   height="10.3975"
   width="142.32735"
   id="rect1773"
   style="opacity:1;fill:#a5ffa5;fill-opacity:1;fill-rule:nonzero;stroke:none;stroke-width:0.56692916;stroke-linecap:butt;stroke-linejoin:miter;stroke-miterlimit:4;stroke-dasharray:none;stroke-dashoffset:0;stroke-opacity:1;paint-order:stroke fill markers" /><rect
   style="opacity:1;fill:#a5ffa5;fill-opacity:1;fill-rule:nonzero;stroke:none;stroke-width:0.56692916;stroke-linecap:butt;stroke-linejoin:miter;stroke-miterlimit:4;stroke-dasharray:none;stroke-dashoffset:0;stroke-opacity:1;paint-order:stroke fill markers"
   id="rect1771"
   width="116.70023"
   height="21.955374"
   x="61.774357"
   y="170.8373" /><g
   id="g7923"><path
     d="m 139.492,95.961 h 53.062 v 41.418 h -53.062 z"
     style="fill:none;stroke:#000000;stroke-width:1.50341296;stroke-linecap:butt;stroke-linejoin:miter;stroke-miterlimit:4;stroke-dasharray:none;stroke-opacity:1"
     id="path7925"
     inkscape:connector-curvature="0" /></g><path
   d="m 139.492,95.961 h 53.062 v 41.418 h -53.062 z"
   style="fill:#e6e6e6;fill-opacity:1;fill-rule:nonzero;stroke:none"
   id="path7927"
   inkscape:connector-curvature="0" /><g
   id="g7929"><path
     d="m 192.57,95.082 c 0,3.301 -11.886,5.977 -26.547,5.977 -14.664,0 -26.55,-2.676 -26.55,-5.977 0,-3.301 11.886,-5.977 26.55,-5.977 14.661,0 26.547,2.676 26.547,5.977 z"
     style="fill:none;stroke:#000000;stroke-width:1.5;stroke-linecap:butt;stroke-linejoin:miter;stroke-miterlimit:4;stroke-dasharray:none;stroke-opacity:1"
     id="path7931"
     inkscape:connector-curvature="0" /></g><path
   d="m 192.57,95.082 c 0,3.301 -11.886,5.977 -26.547,5.977 -14.664,0 -26.55,-2.676 -26.55,-5.977 0,-3.301 11.886,-5.977 26.55,-5.977 14.661,0 26.547,2.676 26.547,5.977 z"
   style="fill:#e6e6e6;fill-opacity:1;fill-rule:nonzero;stroke:none"
   id="path7933"
   inkscape:connector-curvature="0" /><g
   id="g7935"><path
     d="m 192.57,137.586 c 0,3.301 -11.886,5.976 -26.547,5.976 -14.664,0 -26.55,-2.675 -26.55,-5.976 0,-3.301 11.886,-5.977 26.55,-5.977 14.661,0 26.547,2.676 26.547,5.977 z"
     style="fill:none;stroke:#000000;stroke-width:1.5;stroke-linecap:butt;stroke-linejoin:miter;stroke-miterlimit:4;stroke-dasharray:none;stroke-opacity:1"
     id="path7937"
     inkscape:connector-curvature="0" /></g><path
   d="m 192.57,137.586 c 0,3.301 -11.886,5.976 -26.547,5.976 -14.664,0 -26.55,-2.675 -26.55,-5.976 0,-3.301 11.886,-5.977 26.55,-5.977 14.661,0 26.547,2.676 26.547,5.977 z"
   style="fill:#e6e6e6;fill-opacity:1;fill-rule:nonzero;stroke:none"
   id="path7939"
   inkscape:connector-curvature="0" /><path
   d="m 191.828,42.816 v 6.196 H 20.723 v 3.215 h 171.105 v 6.191 l 13.512,-7.801 z"
   style="fill:#000000;fill-opacity:1;fill-rule:nonzero;stroke:none"
   id="path7941"
   inkscape:connector-curvature="0" /><path
   d="m 169,19.012 h 2.68 v 30 H 169 Z"
   style="fill:#00d400;fill-opacity:1;fill-rule:nonzero;stroke:none"
   id="path7943"
   inkscape:connector-curvature="0" /><text
   transform="translate(176.57344,38.253076)"
   style="font-style:oblique;font-variant:normal;font-size:10px;font-family:'CMU Sans Serif';-inkscape-font-specification:CMUSansSerif-Oblique;writing-mode:lr-tb;fill:#000000;fill-opacity:1;fill-rule:nonzero;stroke:none"
   id="text7947"><tspan
     x="0 4.3499999 7.48 16.17"
     y="0"
     sodipodi:role="line"
     id="tspan7945">time</tspan></text>

<path
   d="m 90.996,19.012 h 2.68 v 30 h -2.68 z"
   style="fill:#00d400;fill-opacity:1;fill-rule:nonzero;stroke:none"
   id="path7949"
   inkscape:connector-curvature="0" /><path
   d="m 65.812,19.012 h 2.676 v 30 h -2.676 z"
   style="fill:#00d400;fill-opacity:1;fill-rule:nonzero;stroke:none"
   id="path7951"
   inkscape:connector-curvature="0" /><path
   d="M 31.824,19.012 H 34.5 v 30 h -2.676 z"
   style="fill:#00d400;fill-opacity:1;fill-rule:nonzero;stroke:none"
   id="path7953"
   inkscape:connector-curvature="0" /><path
   d="m 46.328,80.988 h 2.504 v 64.496 h -2.504 z"
   style="fill:#000000;fill-opacity:1;fill-rule:nonzero;stroke:none"
   id="path7955"
   inkscape:connector-curvature="0" /><path
   d="m 46.328,142.98 h 64.496 v 2.504 H 46.328 Z"
   style="fill:#000000;fill-opacity:1;fill-rule:nonzero;stroke:none"
   id="path7957"
   inkscape:connector-curvature="0" /><text
   transform="translate(69.859806,156.28625)"
   style="font-style:oblique;font-variant:normal;font-size:10px;font-family:'CMU Sans Serif';-inkscape-font-specification:CMUSansSerif-Oblique;writing-mode:lr-tb;fill:#000000;fill-opacity:1;fill-rule:nonzero;stroke:none"
   id="text7961"><tspan
     x="0"
     y="0"
     id="tspan7959">E</tspan></text>

<text
   transform="rotate(-90,79.395517,42.65915)"
   style="font-style:oblique;font-variant:normal;font-size:10px;font-family:'CMU Sans Serif';-inkscape-font-specification:CMUSansSerif-Oblique;writing-mode:lr-tb;fill:#000000;fill-opacity:1;fill-rule:nonzero;stroke:none"
   id="text7965"><tspan
     x="0 7.1300001 11.76 18.48"
     y="0"
     sodipodi:role="line"
     id="tspan7963">P(E)</tspan></text>

<path
   d="m 89.371,109.012 c -1.672,-0.227 -3.039,-0.102 -4.219,0.273 -2.359,0.75 -3.871,2.457 -5.582,4.102 -1.707,1.644 -3.609,3.258 -6.793,4.058 -3.179,0.801 -7.906,0.922 -14.757,-0.855 l -0.008,0.765 c 6.949,1.805 11.609,1.856 15,1.004 3.39,-0.855 5.472,-2.617 7.215,-4.293 1.738,-1.671 3.14,-3.218 5.214,-3.878 2.071,-0.661 5.028,-0.485 9.731,1.527 l 0.711,-0.758 c -2.406,-1.031 -4.84,-1.719 -6.512,-1.945 z"
   style="fill:#000000;fill-opacity:1;fill-rule:nonzero;stroke:none"
   id="path7967"
   inkscape:connector-curvature="0" /><path
   d="m 58.02,116.625 v 27.145 h 0.746 v -26.95 z"
   style="fill:#000000;fill-opacity:1;fill-rule:nonzero;stroke:none"
   id="path7969"
   inkscape:connector-curvature="0" /><path
   d="m 95.129,110.957 h 0.754 v 33.371 h -0.754 z"
   style="fill:#000000;fill-opacity:1;fill-rule:nonzero;stroke:none"
   id="path7971"
   inkscape:connector-curvature="0" /><path
   d="m 151.078,119.039 -3.945,-1.652 -2.199,3.668 0.351,-4.262 -4.168,-0.961 4.164,-0.98 -0.379,-4.262 2.223,3.656 3.934,-1.676 -2.789,3.242 z"
   style="fill:#00d400;fill-opacity:1;fill-rule:nonzero;stroke:none"
   id="path7973"
   inkscape:connector-curvature="0" /><path
   d="m 153.332,127.855 -3.945,-1.652 -2.199,3.668 0.351,-4.262 -4.168,-0.961 4.164,-0.98 -0.379,-4.262 2.223,3.656 3.933,-1.675 -2.789,3.242 z"
   style="fill:#00d400;fill-opacity:1;fill-rule:nonzero;stroke:none"
   id="path7975"
   inkscape:connector-curvature="0" /><path
   d="m 185.152,136.074 -3.945,-1.652 -2.203,3.668 0.355,-4.262 -4.171,-0.957 4.164,-0.984 -0.375,-4.262 2.218,3.656 3.938,-1.672 -2.793,3.239 z"
   style="fill:#00d400;fill-opacity:1;fill-rule:nonzero;stroke:none"
   id="path7977"
   inkscape:connector-curvature="0" /><path
   d="m 177.617,109.242 -3.945,-1.652 -2.203,3.668 0.355,-4.266 -4.172,-0.957 4.164,-0.98 -0.375,-4.262 2.219,3.656 3.938,-1.676 -2.793,3.243 z"
   style="fill:#00d400;fill-opacity:1;fill-rule:nonzero;stroke:none"
   id="path7979"
   inkscape:connector-curvature="0" /><g
   id="g7981"><path
     d="M 89.535,107.539 V 75.895"
     style="fill:none;stroke:#00d400;stroke-width:0.85553902;stroke-linecap:butt;stroke-linejoin:miter;stroke-miterlimit:4;stroke-dasharray:none;stroke-opacity:1"
     id="path7983"
     inkscape:connector-curvature="0" /></g><g
   id="g7985"
   transform="rotate(-90)"><path
     d="m -103.062,91.609 -5.61,-2.062 5.61,-2.063 c -0.895,1.215 -0.891,2.883 0,4.125 z"
     style="fill:#00d400;fill-opacity:1;fill-rule:evenodd;stroke:#00d400;stroke-width:0.32082701;stroke-linecap:butt;stroke-linejoin:round;stroke-miterlimit:4;stroke-dasharray:none;stroke-opacity:1"
     id="path7987"
     inkscape:connector-curvature="0" /></g><g
   id="g7989"><path
     d="M 83.535,107.539 V 75.895"
     style="fill:none;stroke:#00d400;stroke-width:0.85553902;stroke-linecap:butt;stroke-linejoin:miter;stroke-miterlimit:4;stroke-dasharray:none;stroke-opacity:1"
     id="path7991"
     inkscape:connector-curvature="0" /></g><g
   id="g7993"
   transform="rotate(-90)"><path
     d="m -103.062,85.609 -5.61,-2.062 5.61,-2.063 c -0.895,1.215 -0.891,2.883 0,4.125 z"
     style="fill:#00d400;fill-opacity:1;fill-rule:evenodd;stroke:#00d400;stroke-width:0.32082701;stroke-linecap:butt;stroke-linejoin:round;stroke-miterlimit:4;stroke-dasharray:none;stroke-opacity:1"
     id="path7995"
     inkscape:connector-curvature="0" /></g><g
   id="g7997"><path
     d="M 73.223,115.602 V 83.957"
     style="fill:none;stroke:#00d400;stroke-width:0.85553902;stroke-linecap:butt;stroke-linejoin:miter;stroke-miterlimit:4;stroke-dasharray:none;stroke-opacity:1"
     id="path7999"
     inkscape:connector-curvature="0" /></g><g
   id="g8001"
   transform="rotate(-90)"><path
     d="m -111.125,75.297 -5.609,-2.063 5.609,-2.062 c -0.895,1.215 -0.891,2.883 0,4.125 z"
     style="fill:#00d400;fill-opacity:1;fill-rule:evenodd;stroke:#00d400;stroke-width:0.32082701;stroke-linecap:butt;stroke-linejoin:round;stroke-miterlimit:4;stroke-dasharray:none;stroke-opacity:1"
     id="path8003"
     inkscape:connector-curvature="0" /></g><g
   id="g8005"><path
     d="M 60.266,114.57 V 82.926"
     style="fill:none;stroke:#00d400;stroke-width:0.85553902;stroke-linecap:butt;stroke-linejoin:miter;stroke-miterlimit:4;stroke-dasharray:none;stroke-opacity:1"
     id="path8007"
     inkscape:connector-curvature="0" /></g><g
   id="g8009"
   transform="rotate(-90)"><path
     d="m -110.098,62.336 -5.605,-2.063 5.605,-2.062 c -0.894,1.219 -0.89,2.883 0,4.125 z"
     style="fill:#00d400;fill-opacity:1;fill-rule:evenodd;stroke:#00d400;stroke-width:0.32082701;stroke-linecap:butt;stroke-linejoin:round;stroke-miterlimit:4;stroke-dasharray:none;stroke-opacity:1"
     id="path8011"
     inkscape:connector-curvature="0" /></g><text
   transform="translate(14.651651,179.62493)"
   style="font-variant:normal;font-size:9px;font-family:Inconsolata-dz;-inkscape-font-specification:Inconsolata-dz;writing-mode:lr-tb;fill:#000000;fill-opacity:1;fill-rule:nonzero;stroke:none;"
   id="text8019"><tspan
     sodipodi:role="line"
     id="tspan8017"
     x="0"
     y="0">Event 0: 37624 ns, 1.62 MeV,</tspan><tspan
     sodipodi:role="line"
     x="0"
     y="11.25"
     id="tspan1763">         (426mm, -83mm, 291mm)</tspan><tspan
     sodipodi:role="line"
     x="0"
     y="22.5"
     id="tspan1767">Event 1: 10002623 ns, 2.41 MeV, ...</tspan></text>

<g
   id="g8021"><path
     d="m 9.777,3.75 h 201.375 v 60 H 9.777 Z"
     style="fill:none;stroke:#000000;stroke-width:0.56692898;stroke-linecap:butt;stroke-linejoin:miter;stroke-miterlimit:4;stroke-dasharray:1.133858, 1.133858;stroke-dashoffset:0;stroke-opacity:1"
     id="path8023"
     inkscape:connector-curvature="0" /></g><g
   id="g8025"><path
     d="m 9.902,70.938 h 201.25 v 89.125 H 9.902 Z"
     style="fill:none;stroke:#000000;stroke-width:0.56692898;stroke-linecap:butt;stroke-linejoin:miter;stroke-miterlimit:4;stroke-dasharray:1.133858, 1.133858;stroke-dashoffset:0;stroke-opacity:1"
     id="path8027"
     inkscape:connector-curvature="0" /></g><g
   id="g8029"><path
     d="m 9.68,167.203 h 201.473 v 41.344 H 9.68 Z"
     style="fill:none;stroke:#000000;stroke-width:0.56692898;stroke-linecap:butt;stroke-linejoin:miter;stroke-miterlimit:4;stroke-dasharray:1.133858, 1.133858;stroke-dashoffset:0;stroke-opacity:1"
     id="path8031"
     inkscape:connector-curvature="0" /></g><g
   id="g8033"><path
     d="M 9.887,57.379 C -1.945,70.113 6.145,75.062 6.145,75.062"
     style="fill:none;stroke:#000000;stroke-width:0.56692898;stroke-linecap:butt;stroke-linejoin:miter;stroke-miterlimit:4;stroke-dasharray:none;stroke-opacity:1"
     id="path8035"
     inkscape:connector-curvature="0" /></g><g
   id="g8037"
   transform="matrix(1,0.611246,-0.611246,1,0,0)"><path
     d="m 40.108,51.91 -3.349,1.934 v -3.867 z"
     style="fill:#000000;fill-opacity:1;fill-rule:evenodd;stroke:#000000;stroke-width:0.51596898;stroke-linecap:butt;stroke-linejoin:miter;stroke-miterlimit:4;stroke-dasharray:none;stroke-opacity:1"
     id="path8039"
     inkscape:connector-curvature="0" /></g><g
   id="g8041"><path
     d="M 9.887,153.941 C -1.945,166.676 6.145,171.625 6.145,171.625"
     style="fill:none;stroke:#000000;stroke-width:0.56692898;stroke-linecap:butt;stroke-linejoin:miter;stroke-miterlimit:4;stroke-dasharray:none;stroke-opacity:1"
     id="path8043"
     inkscape:connector-curvature="0" /></g><g
   id="g8045"
   transform="matrix(1,0.611246,-0.611246,1,0,0)"><path
     d="m 83.078,122.207 -3.35,1.934 v -3.867 z"
     style="fill:#000000;fill-opacity:1;fill-rule:evenodd;stroke:#000000;stroke-width:0.51596898;stroke-linecap:butt;stroke-linejoin:miter;stroke-miterlimit:4;stroke-dasharray:none;stroke-opacity:1"
     id="path8047"
     inkscape:connector-curvature="0" /></g></g></g></svg>