<?xml version="1.0" encoding="UTF-8" standalone="no"?>
<!-- Created with Inkscape (http://www.inkscape.org/) -->

<svg
   xmlns:dc="http://purl.org/dc/elements/1.1/"
   xmlns:cc="http://creativecommons.org/ns#"
   xmlns:rdf="http://www.w3.org/1999/02/22-rdf-syntax-ns#"
   xmlns:svg="http://www.w3.org/2000/svg"
   xmlns="http://www.w3.org/2000/svg"
   xmlns:xlink="http://www.w3.org/1999/xlink"
   xmlns:sodipodi="http://sodipodi.sourceforge.net/DTD/sodipodi-0.dtd"
   xmlns:inkscape="http://www.inkscape.org/namespaces/inkscape"
   id="svg8"
   version="1.1"
   viewBox="0 0 170.42275 109.06912"
   height="412.22974"
   width="644.11749"
   inkscape:version="0.92.3 (2405546, 2018-03-11)"
   sodipodi:docname="ibd.svg">
  <sodipodi:namedview
     inkscape:window-maximized="1"
     inkscape:window-y="0"
     inkscape:window-x="1920"
     inkscape:window-height="1043"
     inkscape:window-width="1920"
     units="px"
     showgrid="false"
     inkscape:current-layer="layer1"
     inkscape:document-units="mm"
     inkscape:cy="192.45792"
     inkscape:cx="238.2647"
     inkscape:zoom="1"
     inkscape:pageshadow="2"
     inkscape:pageopacity="0.0"
     borderopacity="1.0"
     bordercolor="#666666"
     pagecolor="#ffffff"
     id="base"
     inkscape:snap-nodes="true"
     fit-margin-top="10"
     fit-margin-left="10"
     fit-margin-right="10"
     fit-margin-bottom="10" />
  <defs
     id="defs2">
    <marker
       inkscape:stockid="Arrow2Mend"
       orient="auto"
       refY="0"
       refX="0"
       id="marker3667"
       style="overflow:visible"
       inkscape:isstock="true">
      <path
         id="path3665"
         style="fill:#000000;fill-opacity:1;fill-rule:evenodd;stroke:#000000;stroke-width:0.625;stroke-linejoin:round;stroke-opacity:1"
         d="M 8.7185878,4.0337352 -2.2072895,0.01601326 8.7185884,-4.0017078 c -1.7454984,2.3720609 -1.7354408,5.6174519 -6e-7,8.035443 z"
         transform="scale(-0.6)"
         inkscape:connector-curvature="0" />
    </marker>
    <inkscape:path-effect
       effect="bspline"
       id="path-effect3566"
       is_visible="true"
       weight="33.333333"
       steps="2"
       helper_size="0"
       apply_no_weight="true"
       apply_with_weight="true"
       only_selected="false" />
    <linearGradient
       inkscape:collect="always"
       id="linearGradient2432">
      <stop
         id="stop2428"
         offset="0"
         style="stop-color:#ffffff;stop-opacity:1" />
      <stop
         id="stop2430"
         offset="1"
         style="stop-color:#cccccc;stop-opacity:1" />
    </linearGradient>
    <linearGradient
       id="linearGradient1660-4"
       inkscape:collect="always">
      <stop
         style="stop-color:#ffffff;stop-opacity:1"
         offset="0"
         id="stop1656" />
      <stop
         style="stop-color:#2c7af9;stop-opacity:1"
         offset="1"
         id="stop1658" />
    </linearGradient>
    <linearGradient
       id="linearGradient1644"
       inkscape:collect="always">
      <stop
         style="stop-color:#ffffff;stop-opacity:1"
         offset="0"
         id="stop1640" />
      <stop
         style="stop-color:#2cf938;stop-opacity:1"
         offset="1"
         id="stop1642" />
    </linearGradient>
    <linearGradient
       id="linearGradient1638"
       inkscape:collect="always">
      <stop
         style="stop-color:#ffffff;stop-opacity:1"
         offset="0"
         id="stop1634" />
      <stop
         style="stop-color:#f92c2c;stop-opacity:1"
         offset="1"
         id="stop1636" />
    </linearGradient>
    <linearGradient
       id="linearGradient1575-0-8"
       inkscape:collect="always">
      <stop
         style="stop-color:#ffffff;stop-opacity:1"
         offset="0"
         id="stop1573" />
      <stop
         style="stop-color:#939292;stop-opacity:1"
         offset="1"
         id="stop1571" />
    </linearGradient>
    <marker
       inkscape:isstock="true"
       style="overflow:visible"
       id="Arrow2Mend"
       refX="0"
       refY="0"
       orient="auto"
       inkscape:stockid="Arrow2Mend"
       inkscape:collect="always">
      <path
         transform="scale(-0.6)"
         d="M 8.7185878,4.0337352 -2.2072895,0.01601326 8.7185884,-4.0017078 c -1.7454984,2.3720609 -1.7354408,5.6174519 -6e-7,8.035443 z"
         style="fill:#000000;fill-opacity:1;fill-rule:evenodd;stroke:#000000;stroke-width:0.625;stroke-linejoin:round;stroke-opacity:1"
         id="path848"
         inkscape:connector-curvature="0" />
    </marker>
    <marker
       inkscape:isstock="true"
       style="overflow:visible"
       id="Arrow2Lend"
       refX="0"
       refY="0"
       orient="auto"
       inkscape:stockid="Arrow2Lend">
      <path
         transform="matrix(-1.1,0,0,-1.1,-1.1,0)"
         d="M 8.7185878,4.0337352 -2.2072895,0.01601326 8.7185884,-4.0017078 c -1.7454984,2.3720609 -1.7354408,5.6174519 -6e-7,8.035443 z"
         style="fill:#000000;fill-opacity:1;fill-rule:evenodd;stroke:#000000;stroke-width:0.625;stroke-linejoin:round;stroke-opacity:1"
         id="path842"
         inkscape:connector-curvature="0" />
    </marker>
    <radialGradient
       gradientTransform="translate(-23.888709,0.89355782)"
       gradientUnits="userSpaceOnUse"
       r="7.1082087"
       fy="226.39177"
       fx="56.233833"
       cy="226.39177"
       cx="56.233833"
       id="radialGradient1581"
       xlink:href="#linearGradient1660-4"
       inkscape:collect="always" />
    <radialGradient
       r="7.1082087"
       fy="226.39177"
       fx="56.233833"
       cy="226.39177"
       cx="56.233833"
       gradientTransform="translate(38.276292,-26.262445)"
       gradientUnits="userSpaceOnUse"
       id="radialGradient1623"
       xlink:href="#linearGradient1644"
       inkscape:collect="always" />
    <radialGradient
       r="7.1082087"
       fy="226.39177"
       fx="56.233833"
       cy="226.39177"
       cx="56.233833"
       gradientTransform="translate(36.620462,-31.159211)"
       gradientUnits="userSpaceOnUse"
       id="radialGradient1627"
       xlink:href="#linearGradient1638"
       inkscape:collect="always" />
    <radialGradient
       r="7.1082087"
       fy="226.39177"
       fx="56.233833"
       cy="226.39177"
       cx="56.233833"
       gradientTransform="translate(77.014031,38.834959)"
       gradientUnits="userSpaceOnUse"
       id="radialGradient1650"
       xlink:href="#linearGradient1575-0-8"
       inkscape:collect="always" />
    <radialGradient
       gradientTransform="translate(93.047293,41.327049)"
       r="7.1082087"
       fy="226.39177"
       fx="56.233833"
       cy="226.39177"
       cx="56.233833"
       gradientUnits="userSpaceOnUse"
       id="radialGradient1654"
       xlink:href="#linearGradient1660-4"
       inkscape:collect="always" />
    <radialGradient
       inkscape:collect="always"
       xlink:href="#linearGradient2432"
       id="radialGradient2407"
       gradientUnits="userSpaceOnUse"
       gradientTransform="matrix(0.71047904,0,0,0.71047904,-35.691925,67.62777)"
       cx="56.233833"
       cy="226.39177"
       fx="56.233833"
       fy="226.39177"
       r="7.1082087" />
    <radialGradient
       inkscape:collect="always"
       xlink:href="#linearGradient1575-0-8"
       id="radialGradient3599"
       gradientUnits="userSpaceOnUse"
       gradientTransform="translate(85.62011,38.834959)"
       cx="56.233833"
       cy="226.39177"
       fx="56.233833"
       fy="226.39177"
       r="7.1082087" />
    <radialGradient
       inkscape:collect="always"
       xlink:href="#linearGradient1638"
       id="radialGradient3601"
       gradientUnits="userSpaceOnUse"
       gradientTransform="translate(45.226541,-31.159211)"
       cx="56.233833"
       cy="226.39177"
       fx="56.233833"
       fy="226.39177"
       r="7.1082087" />
  </defs>
  <metadata
     id="metadata5">
    <rdf:RDF>
      <cc:Work
         rdf:about="">
        <dc:format>image/svg+xml</dc:format>
        <dc:type
           rdf:resource="http://purl.org/dc/dcmitype/StillImage" />
        <dc:title></dc:title>
      </cc:Work>
    </rdf:RDF>
  </metadata>
  <g
     transform="translate(1.1904863,-172.5107)"
     id="layer1"
     inkscape:groupmode="layer"
     inkscape:label="Layer 1">
    <path
       inkscape:connector-curvature="0"
       id="path1615"
       d="m 141.94286,267.83969 4.54088,-11.18232 v -0.84395 l -42.5194,12.87023 16.09958,-24.68551 v 15.40207 L 87.039148,257.29034 100.24905,243.1542 74.654866,239.5674"
       style="fill:none;stroke:#000000;stroke-width:0.26458332px;stroke-linecap:butt;stroke-linejoin:miter;stroke-opacity:1" />
    <path
       inkscape:connector-curvature="0"
       id="path1646"
       d="m 77.766342,220.19027 5.68657,-6.31841 -2.36941,-3.79104 8.21393,0.47388 v -4.10697 l 5.212688,-0.7898"
       style="fill:none;stroke:#000000;stroke-width:0.26458332px;stroke-linecap:butt;stroke-linejoin:miter;stroke-opacity:1" />
    <path
       id="path1921"
       inkscape:connector-curvature="0"
       d="m 11.944826,231.39991 c 14.636577,0 14.636577,0 14.636577,0"
       style="fill:none;stroke:#000000;stroke-width:0.79374999;stroke-linecap:butt;stroke-linejoin:miter;stroke-miterlimit:4;stroke-dasharray:1.5875, 1.5875;stroke-dashoffset:0;stroke-opacity:1;marker-end:url(#Arrow2Mend)" />
    <circle
       r="7.1082087"
       cy="231.39229"
       cx="35.504322"
       id="path1563"
       style="opacity:1;fill:url(#radialGradient1581);fill-opacity:1;fill-rule:nonzero;stroke:none;stroke-width:0.79374999;stroke-linecap:butt;stroke-linejoin:miter;stroke-miterlimit:4;stroke-dasharray:3.17499996, 3.17499996;stroke-dashoffset:0;stroke-opacity:1;paint-order:stroke fill markers" />
    <circle
       style="opacity:1;fill:#ffffff;fill-opacity:1;fill-rule:nonzero;stroke:#2cf938;stroke-width:2.64583333;stroke-linecap:butt;stroke-linejoin:miter;stroke-miterlimit:4;stroke-dasharray:2.64583333,2.64583333;stroke-dashoffset:0;stroke-opacity:1;paint-order:stroke fill markers"
       id="circle1590"
       cx="73.975288"
       cy="220.8221"
       r="7.1082087" />
    <circle
       r="7.1082087"
       cy="239.84628"
       cx="73.975288"
       id="circle1594"
       style="opacity:1;fill:#ffffff;fill-opacity:1;fill-rule:nonzero;stroke:#939292;stroke-width:2.64583333;stroke-linecap:butt;stroke-linejoin:miter;stroke-miterlimit:4;stroke-dasharray:2.64583333,2.64583333;stroke-dashoffset:0;stroke-opacity:1;paint-order:stroke fill markers" />
    <circle
       r="7.1082087"
       cy="204.23628"
       cx="97.669319"
       id="circle1621"
       style="opacity:1;fill:url(#radialGradient1623);fill-opacity:1;fill-rule:nonzero;stroke:none;stroke-width:0.79374999;stroke-linecap:butt;stroke-linejoin:miter;stroke-miterlimit:4;stroke-dasharray:3.17499996, 3.17499996;stroke-dashoffset:0;stroke-opacity:1;paint-order:stroke fill markers" />
    <circle
       style="opacity:1;fill:url(#radialGradient3601);fill-opacity:1;fill-rule:nonzero;stroke:none;stroke-width:0.79374999;stroke-linecap:butt;stroke-linejoin:miter;stroke-miterlimit:4;stroke-dasharray:3.17499996, 3.17499996;stroke-dashoffset:0;stroke-opacity:1;paint-order:stroke fill markers"
       id="circle1625"
       cx="104.61957"
       cy="199.33952"
       r="7.1082087" />
    <circle
       style="opacity:1;fill:url(#radialGradient3599);fill-opacity:1;fill-rule:nonzero;stroke:none;stroke-width:0.79374999;stroke-linecap:butt;stroke-linejoin:miter;stroke-miterlimit:4;stroke-dasharray:3.17499996, 3.17499996;stroke-dashoffset:0;stroke-opacity:1;paint-order:stroke fill markers"
       id="circle1648"
       cx="145.01315"
       cy="269.33371"
       r="7.1082087" />
    <circle
       style="opacity:1;fill:url(#radialGradient1654);fill-opacity:1;fill-rule:nonzero;stroke:none;stroke-width:0.79374999;stroke-linecap:butt;stroke-linejoin:miter;stroke-miterlimit:4;stroke-dasharray:3.17499996, 3.17499996;stroke-dashoffset:0;stroke-opacity:1;paint-order:stroke fill markers"
       id="circle1652"
       cx="152.44034"
       cy="271.82578"
       r="7.1082087" />
    <g
       transform="rotate(-42.067927,78.418188,165.36194)"
       id="g1811">
      <path
         style="fill:none;stroke:#000000;stroke-width:0.26458332px;stroke-linecap:butt;stroke-linejoin:miter;stroke-opacity:1"
         d="m 49.369068,199.37879 -1.563724,-5.80813 v 0"
         id="path1796"
         inkscape:connector-curvature="0" />
      <path
         inkscape:connector-curvature="0"
         id="path1798"
         d="m 50.346796,199.40574 0.02436,-6.01489 v 0"
         style="fill:none;stroke:#000000;stroke-width:0.26458332px;stroke-linecap:butt;stroke-linejoin:miter;stroke-opacity:1" />
      <path
         style="fill:none;stroke:#000000;stroke-width:0.26458332px;stroke-linecap:butt;stroke-linejoin:miter;stroke-opacity:1"
         d="m 51.204559,199.40242 1.563724,-5.80813 v 0"
         id="path1800"
         inkscape:connector-curvature="0" />
    </g>
    <g
       id="g1819"
       transform="matrix(0.49202789,-0.87057944,-0.87057944,-0.49202789,238.65311,353.55711)">
      <path
         inkscape:connector-curvature="0"
         id="path1813"
         d="m 49.369068,199.37879 -1.563724,-5.80813 v 0"
         style="fill:none;stroke:#000000;stroke-width:0.26458332px;stroke-linecap:butt;stroke-linejoin:miter;stroke-opacity:1" />
      <path
         style="fill:none;stroke:#000000;stroke-width:0.26458332px;stroke-linecap:butt;stroke-linejoin:miter;stroke-opacity:1"
         d="m 50.346796,199.40574 0.02436,-6.01489 v 0"
         id="path1815"
         inkscape:connector-curvature="0" />
      <path
         inkscape:connector-curvature="0"
         id="path1817"
         d="m 51.204559,199.40242 1.563724,-5.80813 v 0"
         style="fill:none;stroke:#000000;stroke-width:0.26458332px;stroke-linecap:butt;stroke-linejoin:miter;stroke-opacity:1" />
    </g>
    <path
       style="color:#000000;font-style:normal;font-variant:normal;font-weight:normal;font-stretch:normal;font-size:medium;line-height:normal;font-family:sans-serif;font-variant-ligatures:normal;font-variant-position:normal;font-variant-caps:normal;font-variant-numeric:normal;font-variant-alternates:normal;font-feature-settings:normal;text-indent:0;text-align:start;text-decoration:none;text-decoration-line:none;text-decoration-style:solid;text-decoration-color:#000000;letter-spacing:normal;word-spacing:normal;text-transform:none;writing-mode:lr-tb;direction:ltr;text-orientation:mixed;dominant-baseline:auto;baseline-shift:baseline;text-anchor:start;white-space:normal;shape-padding:0;clip-rule:nonzero;display:inline;overflow:visible;visibility:visible;opacity:1;isolation:auto;mix-blend-mode:normal;color-interpolation:sRGB;color-interpolation-filters:linearRGB;solid-color:#000000;solid-opacity:1;vector-effect:none;fill:#d42aff;fill-opacity:1;fill-rule:nonzero;stroke:none;stroke-width:1.05833328;stroke-linecap:butt;stroke-linejoin:miter;stroke-miterlimit:4;stroke-dasharray:none;stroke-dashoffset:0;stroke-opacity:1;paint-order:stroke fill markers;color-rendering:auto;image-rendering:auto;shape-rendering:auto;text-rendering:auto;enable-background:accumulate"
       d="m 87.632747,175.15653 0.656872,1.29203 c -0.02888,-6.1e-4 -0.05877,1.6e-4 -0.08702,-10e-4 0.03486,0.0154 0.07238,0.0289 0.108413,0.0435 l 0.685306,1.34696 c 0.145969,-0.3159 0.381086,-0.62917 0.67773,-0.92151 0.232174,0.0758 0.439852,0.15779 0.589919,0.2523 0.169829,0.10696 0.278397,0.23043 0.327075,0.37495 0.0483,0.14455 0.04032,0.32161 -0.02142,0.53318 -0.06222,0.21262 -0.180355,0.46466 -0.327394,0.73688 -0.147372,0.27284 -0.322091,0.56572 -0.476781,0.85879 -0.154917,0.29349 -0.288983,0.58601 -0.358062,0.86367 -0.06938,0.27785 -0.06981,0.53503 0.02482,0.75479 0.09443,0.21959 0.277472,0.39203 0.516205,0.5281 0.238185,0.13579 0.525367,0.23546 0.822326,0.32374 0.296339,0.0881 0.600152,0.1643 0.865071,0.24948 0.264437,0.085 0.490914,0.17969 0.648366,0.28984 0.157276,0.10999 0.252689,0.23625 0.290171,0.38613 0.03755,0.1501 0.01889,0.33476 -0.05363,0.55407 -0.07275,0.21991 -0.200178,0.47847 -0.352088,0.75465 -0.152193,0.27678 -0.326592,0.57161 -0.476939,0.86464 -0.150583,0.29351 -0.277423,0.58433 -0.332976,0.85836 -0.05553,0.27415 -0.03677,0.5244 0.07533,0.73585 0.1118,0.21116 0.309856,0.37409 0.558368,0.50325 0.247962,0.12887 0.541557,0.2233 0.839437,0.3094 0.297242,0.0859 0.597516,0.164 0.854426,0.25083 0.256447,0.0867 0.469956,0.18369 0.61476,0.29694 0.144707,0.11319 0.228084,0.24388 0.254524,0.39949 0.0264,0.15598 -0.0033,0.34832 -0.08623,0.57474 -0.08316,0.22708 -0.221188,0.49188 -0.377006,0.77156 -0.15612,0.28027 -0.329353,0.57602 -0.4744,0.86869 -0.14537,0.29314 -0.261221,0.58055 -0.302342,0.85066 -0.04109,0.27017 -0.0028,0.51433 0.12623,0.71712 0.128826,0.2025 0.340508,0.35718 0.597928,0.47988 0.256869,0.12242 0.554963,0.21301 0.852811,0.2974 0.297233,0.0842 0.591221,0.16161 0.839324,0.25034 0.247679,0.0886 0.449362,0.18964 0.581526,0.30612 0.132052,0.11644 0.203884,0.25129 0.219299,0.41304 0.0153,0.16221 -0.02553,0.36199 -0.118354,0.59532 -0.09316,0.234 -0.238766,0.50477 -0.397667,0.78756 -0.159205,0.28335 -0.331298,0.57919 -0.470099,0.87115 -0.139128,0.2924 -0.242975,0.57791 -0.26875,0.84355 -0.02591,0.26574 0.02988,0.50231 0.175442,0.6963 0.145227,0.1937 0.369015,0.33923 0.634502,0.45592 0.264886,0.11644 0.567111,0.20365 0.864029,0.28675 0.296311,0.0829 0.586791,0.16151 0.825381,0.25238 0.23822,0.0907 0.42617,0.19514 0.54569,0.31493 0.11965,0.11976 0.18054,0.25887 0.18477,0.42711 0.004,0.16863 -0.0503,0.37784 -0.15279,0.6179 -0.10274,0.24063 -0.25376,0.51493 -0.41483,0.80038 -0.16139,0.28601 -0.33226,0.58228 -0.46392,0.8732 -0.13192,0.29137 -0.22405,0.5743 -0.23386,0.83494 -0.01,0.26072 0.0674,0.48857 0.22865,0.67374 0.16103,0.18481 0.39629,0.32213 0.66893,0.43332 0.27202,0.11093 0.57791,0.19589 0.87296,0.27813 l 0.67987,-0.66575 c -0.29443,-0.0821 -0.57771,-0.16198 -0.80631,-0.25519 -0.22797,-0.093 -0.4034,-0.19981 -0.51089,-0.32321 -0.10724,-0.12305 -0.15557,-0.26765 -0.14899,-0.44293 0.007,-0.17533 0.072,-0.39179 0.1835,-0.63817 0.11168,-0.24679 0.27103,-0.52572 0.43341,-0.8135 0.1627,-0.2883 0.32852,-0.58493 0.45212,-0.87438 0.12379,-0.29003 0.20243,-0.5694 0.19581,-0.82445 -0.006,-0.25556 -0.10216,-0.47534 -0.27816,-0.65161 -0.17602,-0.17631 -0.42321,-0.30523 -0.70187,-0.41136 -0.27829,-0.10599 -0.58585,-0.18851 -0.87809,-0.27032 -0.29164,-0.0816 -0.56679,-0.16371 -0.784611,-0.25947 -0.217228,-0.0955 -0.379345,-0.20655 -0.474642,-0.33362 -0.09512,-0.12671 -0.132188,-0.27583 -0.114597,-0.4582 0.01766,-0.18244 0.0945,-0.40736 0.214538,-0.65973 0.120144,-0.25276 0.283336,-0.53484 0.446053,-0.82443 0.163039,-0.29017 0.324259,-0.5872 0.438849,-0.87495 0.11478,-0.28837 0.18111,-0.56403 0.1575,-0.81297 -0.0237,-0.24931 -0.13977,-0.4601 -0.32995,-0.62779 -0.19015,-0.16763 -0.446576,-0.2899 -0.73068,-0.39149 -0.28368,-0.10145 -0.591974,-0.18069 -0.88056,-0.26244 -0.287953,-0.0816 -0.554796,-0.16628 -0.761336,-0.26471 -0.205957,-0.0982 -0.355083,-0.21123 -0.438426,-0.34222 -0.08315,-0.13068 -0.108526,-0.28616 -0.07963,-0.47598 0.02885,-0.18986 0.117439,-0.42237 0.245325,-0.68032 0.128083,-0.25839 0.29539,-0.54502 0.457537,-0.83605 0.162461,-0.29162 0.318467,-0.58712 0.423081,-0.87283 0.104825,-0.28635 0.154503,-0.55791 0.113523,-0.80029 -0.04126,-0.24265 -0.175149,-0.44412 -0.378702,-0.60342 -0.203505,-0.15917 -0.468523,-0.27456 -0.757126,-0.37212 -0.288176,-0.0974 -0.597802,-0.17551 -0.881796,-0.25758 -0.283383,-0.0819 -0.541477,-0.16879 -0.736254,-0.27001 -0.194233,-0.10096 -0.32873,-0.21753 -0.400371,-0.35272 -0.07132,-0.13493 -0.0861,-0.29744 -0.04618,-0.49469 0.04004,-0.1974 0.139067,-0.43673 0.274045,-0.69988 0.13522,-0.2636 0.305941,-0.5529 0.466537,-0.84499 0.160942,-0.29268 0.310288,-0.58669 0.404014,-0.87002 0.0939,-0.28392 0.128306,-0.55202 0.06945,-0.7873 -0.05892,-0.23551 -0.209912,-0.42619 -0.42564,-0.57756 -0.215971,-0.15106 -0.489799,-0.26122 -0.782044,-0.35521 -0.291786,-0.0938 -0.599314,-0.17105 -0.877836,-0.25383 -0.277897,-0.0826 -0.526632,-0.17158 -0.709276,-0.27572 -0.182146,-0.10384 -0.303367,-0.22415 -0.363486,-0.36388 -0.06016,-0.13945 -0.06377,-0.3087 -0.01275,-0.5134 0.05068,-0.20473 0.16146,-0.45205 0.302951,-0.72007 0.141647,-0.2684 0.313658,-0.55886 0.471819,-0.85161 0.158517,-0.29339 0.300635,-0.58614 0.382566,-0.86672 0.082,-0.28113 0.09809,-0.54363 0.02149,-0.77134 -0.07676,-0.22782 -0.243186,-0.40955 -0.470873,-0.55298 -0.180099,-0.11342 -0.397138,-0.1998 -0.624762,-0.27707 0.43223,-0.28238 0.920945,-0.51831 1.431458,-0.67787 z"
       id="path2060"
       inkscape:connector-curvature="0" />
    <path
       inkscape:connector-curvature="0"
       id="path2111"
       d="m 165.19917,227.17878 -0.63281,1.93736 c -0.0111,-0.0244 -0.0236,-0.048 -0.0339,-0.0728 0.004,0.0453 0.009,0.0908 0.0131,0.13614 l -0.6595,2.02013 c 0.27713,-0.22167 0.58802,-0.36723 0.90898,-0.43956 0.0402,0.27281 0.0663,0.53222 0.0608,0.75779 -0.006,0.25528 -0.0485,0.47806 -0.12916,0.67439 -0.0809,0.19604 -0.2067,0.38097 -0.37792,0.55904 -0.17214,0.17882 -0.39392,0.35431 -0.6412,0.52786 -0.24786,0.17395 -0.52051,0.34709 -0.78531,0.53691 -0.26517,0.19009 -0.52134,0.39625 -0.74128,0.63978 -0.22019,0.24347 -0.39853,0.52129 -0.51299,0.83675 -0.11441,0.31511 -0.16079,0.65207 -0.15974,0.99548 7.1e-4,0.34266 0.0466,0.68652 0.10406,1.02609 0.0573,0.33885 0.1258,0.67103 0.17256,0.98093 0.0466,0.30934 0.0715,0.59787 0.0581,0.84642 -0.0134,0.24825 -0.0628,0.46323 -0.15165,0.65615 -0.089,0.19322 -0.22437,0.37759 -0.40525,0.55517 -0.18139,0.17805 -0.41139,0.35296 -0.66338,0.52678 -0.2525,0.17425 -0.52638,0.34977 -0.78942,0.54311 -0.26345,0.19367 -0.51556,0.40394 -0.72758,0.65465 -0.21209,0.25085 -0.37797,0.53695 -0.47969,0.85779 -0.10165,0.32029 -0.13544,0.65929 -0.1257,1.00327 0.01,0.3432 0.0615,0.68667 0.12082,1.02465 0.0592,0.33725 0.12495,0.66854 0.16739,0.97362 0.0423,0.30456 0.0604,0.58497 0.0397,0.8265 -0.0206,0.24136 -0.0779,0.45125 -0.17513,0.64128 -0.0975,0.1904 -0.24263,0.37399 -0.43259,0.55073 -0.19052,0.17724 -0.42907,0.35018 -0.68504,0.52458 -0.25649,0.1748 -0.53054,0.35226 -0.79121,0.54958 -0.26111,0.19755 -0.50648,0.41317 -0.71002,0.6715 -0.20357,0.25844 -0.35744,0.55395 -0.4464,0.87937 -0.0889,0.32492 -0.11149,0.66622 -0.0937,1.01051 0.0178,0.34355 0.074,0.68656 0.13448,1.02266 0.0603,0.3354 0.1241,0.66078 0.16169,0.96069 0.0375,0.29939 0.048,0.57449 0.0201,0.80909 -0.0279,0.2345 -0.0927,0.43939 -0.19858,0.62701 -0.10626,0.188 -0.26096,0.37051 -0.45967,0.54657 -0.1993,0.17651 -0.44503,0.34968 -0.70437,0.52491 -0.25986,0.17558 -0.53352,0.35409 -0.79119,0.55577 -0.25812,0.20189 -0.49737,0.42531 -0.69169,0.69143 -0.19444,0.2661 -0.33605,0.56783 -0.41233,0.89731 -0.0762,0.32886 -0.0877,0.67021 -0.0625,1.01465 0.0251,0.34368 0.0854,0.68643 0.14632,1.02037 0.0609,0.33327 0.1224,0.65703 0.15473,0.95143 0.0322,0.29395 0.035,0.56137 -3.1e-4,0.78917 -0.0352,0.22787 -0.10724,0.42839 -0.22211,0.61382 -0.11506,0.18602 -0.28183,0.36733 -0.48906,0.5427 -0.20772,0.17579 -0.45805,0.34834 -0.7201,0.52466 -0.26258,0.17667 -0.53605,0.35665 -0.79016,0.56307 -0.25451,0.20669 -0.48731,0.43696 -0.67179,0.71081 -0.18456,0.27383 -0.31157,0.58377 -0.37545,0.91661 -0.0637,0.33226 -0.0649,0.67417 -0.0331,1.01854 0.0317,0.34358 0.095,0.68689 0.15588,1.01838 l 0.73266,-0.16119 c -0.0607,-0.33079 -0.11846,-0.65006 -0.14515,-0.93879 -0.0266,-0.28796 -0.0226,-0.54769 0.02,-0.76952 0.0424,-0.22124 0.12331,-0.41735 0.24736,-0.60152 0.12408,-0.18423 0.30017,-0.36455 0.51537,-0.53938 0.21555,-0.17512 0.47241,-0.34581 0.7366,-0.52357 0.2647,-0.17809 0.5364,-0.3626 0.78626,-0.57405 0.25035,-0.21193 0.47528,-0.44944 0.64933,-0.73073 0.17446,-0.28174 0.28851,-0.59808 0.34036,-0.9334 0.0519,-0.33538 0.0425,-0.678 0.005,-1.02185 -0.0377,-0.34339 -0.10331,-0.68546 -0.16333,-1.01414 -0.0599,-0.32802 -0.11288,-0.64299 -0.13351,-0.92559 -0.0206,-0.28183 -0.008,-0.53522 0.0416,-0.751 0.0498,-0.21522 0.13831,-0.40697 0.27166,-0.58974 0.13344,-0.18281 0.31994,-0.36292 0.5427,-0.5372 0.22307,-0.17461 0.48365,-0.34555 0.74923,-0.52501 0.26612,-0.17981 0.53626,-0.36855 0.78135,-0.58557 0.24561,-0.21754 0.46306,-0.46116 0.62609,-0.74979 0.16325,-0.28914 0.26293,-0.61252 0.30317,-0.95022 0.0402,-0.33759 0.0225,-0.68062 -0.0205,-1.02404 -0.043,-0.34291 -0.11118,-0.68203 -0.16977,-1.00766 -0.0584,-0.32495 -0.10632,-0.63589 -0.1206,-0.91212 -0.0143,-0.27547 0.004,-0.52033 0.062,-0.7305 0.0574,-0.20969 0.15492,-0.39872 0.29795,-0.58025 0.14306,-0.18164 0.3395,-0.36029 0.56926,-0.53416 0.23014,-0.17417 0.49551,-0.34665 0.76186,-0.52813 0.26689,-0.18186 0.53389,-0.37323 0.77359,-0.59624 0.24022,-0.22353 0.4482,-0.47641 0.59974,-0.77225 0.15162,-0.29635 0.23774,-0.6243 0.26682,-0.96391 0.029,-0.33944 0.003,-0.68208 -0.0445,-1.02483 -0.0476,-0.34222 -0.11711,-0.6812 -0.17363,-1.00343 -0.0564,-0.32153 -0.0993,-0.62765 -0.10691,-0.89723 -0.008,-0.26884 0.0194,-0.50548 0.0845,-0.71059 0.065,-0.20455 0.17168,-0.39246 0.32426,-0.57299 0.15274,-0.18058 0.35808,-0.35804 0.59427,-0.53169 0.2366,-0.17394 0.50519,-0.34651 0.77165,-0.5304 0.26702,-0.18426 0.53033,-0.37949 0.76403,-0.60888 0.23418,-0.22989 0.43366,-0.49157 0.57314,-0.79441 0.13963,-0.30315 0.21144,-0.63349 0.23018,-0.97454 0.0184,-0.34092 -0.0146,-0.68515 -0.0662,-1.02702 -0.0515,-0.34133 -0.12079,-0.67763 -0.17464,-0.99612 -0.0538,-0.31777 -0.0914,-0.61847 -0.0922,-0.88123 -7.1e-4,-0.26203 0.0342,-0.49179 0.10695,-0.69235 0.0726,-0.20027 0.1884,-0.3863 0.35057,-0.56573 0.16207,-0.17977 0.37764,-0.35621 0.6198,-0.52977 0.2425,-0.17386 0.5124,-0.34662 0.77835,-0.53324 0.26655,-0.18701 0.52609,-0.38681 0.75318,-0.62292 0.2275,-0.23665 0.41577,-0.50733 0.54294,-0.81658 0.12718,-0.30951 0.18662,-0.64285 0.19507,-0.98514 0.006,-0.27071 -0.0202,-0.54253 -0.0575,-0.81323 0.3682,0.0499 0.72679,0.1964 1.04113,0.44357 z"
       style="color:#000000;font-style:normal;font-variant:normal;font-weight:normal;font-stretch:normal;font-size:medium;line-height:normal;font-family:sans-serif;font-variant-ligatures:normal;font-variant-position:normal;font-variant-caps:normal;font-variant-numeric:normal;font-variant-alternates:normal;font-feature-settings:normal;text-indent:0;text-align:start;text-decoration:none;text-decoration-line:none;text-decoration-style:solid;text-decoration-color:#000000;letter-spacing:normal;word-spacing:normal;text-transform:none;writing-mode:lr-tb;direction:ltr;text-orientation:mixed;dominant-baseline:auto;baseline-shift:baseline;text-anchor:start;white-space:normal;shape-padding:0;clip-rule:nonzero;display:inline;overflow:visible;visibility:visible;opacity:1;isolation:auto;mix-blend-mode:normal;color-interpolation:sRGB;color-interpolation-filters:linearRGB;solid-color:#000000;solid-opacity:1;vector-effect:none;fill:#d42aff;fill-opacity:1;fill-rule:nonzero;stroke:none;stroke-width:1.05833328;stroke-linecap:butt;stroke-linejoin:miter;stroke-miterlimit:4;stroke-dasharray:none;stroke-dashoffset:0;stroke-opacity:1;paint-order:stroke fill markers;color-rendering:auto;image-rendering:auto;shape-rendering:auto;text-rendering:auto;enable-background:accumulate" />
    <path
       inkscape:connector-curvature="0"
       id="path2113"
       d="m 110.39286,233.17941 -0.65687,-1.29203 c 0.0289,6.1e-4 0.0588,-1.6e-4 0.087,0.001 -0.0349,-0.0154 -0.0724,-0.0289 -0.10841,-0.0435 l -0.68531,-1.34696 c -0.14597,0.3159 -0.38108,0.62917 -0.67773,0.92151 -0.23217,-0.0758 -0.43985,-0.15779 -0.58992,-0.2523 -0.16982,-0.10696 -0.27839,-0.23043 -0.32707,-0.37495 -0.0483,-0.14455 -0.0403,-0.32161 0.0214,-0.53318 0.0622,-0.21262 0.18035,-0.46466 0.32739,-0.73688 0.14738,-0.27284 0.32209,-0.56572 0.47678,-0.85879 0.15492,-0.29349 0.28899,-0.58601 0.35807,-0.86367 0.0694,-0.27785 0.0698,-0.53503 -0.0248,-0.75479 -0.0944,-0.21959 -0.27748,-0.39203 -0.51621,-0.5281 -0.23818,-0.13579 -0.52537,-0.23546 -0.82232,-0.32374 -0.29634,-0.0881 -0.60016,-0.1643 -0.86508,-0.24948 -0.26443,-0.085 -0.49091,-0.17969 -0.64836,-0.28984 -0.15728,-0.10999 -0.25269,-0.23625 -0.29017,-0.38613 -0.0375,-0.1501 -0.0189,-0.33476 0.0536,-0.55407 0.0727,-0.21991 0.20018,-0.47847 0.35209,-0.75465 0.15219,-0.27678 0.32659,-0.57161 0.47693,-0.86464 0.15059,-0.29351 0.27743,-0.58433 0.33298,-0.85836 0.0555,-0.27415 0.0368,-0.5244 -0.0753,-0.73585 -0.1118,-0.21116 -0.30986,-0.37409 -0.55837,-0.50325 -0.24796,-0.12887 -0.54155,-0.2233 -0.83943,-0.3094 -0.29725,-0.0859 -0.59752,-0.164 -0.85443,-0.25083 -0.25645,-0.0867 -0.46996,-0.18369 -0.61476,-0.29694 -0.14471,-0.11319 -0.22808,-0.24388 -0.25452,-0.39949 -0.0264,-0.15598 0.003,-0.34832 0.0862,-0.57474 0.0832,-0.22708 0.22118,-0.49188 0.377,-0.77156 0.15612,-0.28027 0.32935,-0.57602 0.4744,-0.86869 0.14537,-0.29314 0.26122,-0.58055 0.30234,-0.85066 0.0411,-0.27017 0.003,-0.51433 -0.12623,-0.71712 -0.12882,-0.2025 -0.3405,-0.35718 -0.59792,-0.47988 -0.25687,-0.12242 -0.55497,-0.21301 -0.85282,-0.2974 -0.29723,-0.0842 -0.59122,-0.16161 -0.83932,-0.25034 -0.24768,-0.0886 -0.44936,-0.18964 -0.58153,-0.30612 -0.13205,-0.11644 -0.20388,-0.25129 -0.2193,-0.41304 -0.0153,-0.16221 0.0255,-0.36199 0.11836,-0.59532 0.0932,-0.234 0.23876,-0.50477 0.39766,-0.78756 0.15921,-0.28335 0.3313,-0.57919 0.4701,-0.87115 0.13913,-0.2924 0.24298,-0.57791 0.26876,-0.84355 0.0259,-0.26574 -0.0299,-0.50231 -0.17545,-0.6963 -0.14523,-0.1937 -0.36901,-0.33923 -0.6345,-0.45592 -0.26489,-0.11644 -0.56711,-0.20365 -0.86403,-0.28675 -0.29631,-0.0829 -0.58679,-0.16151 -0.82538,-0.25238 -0.23822,-0.0907 -0.42617,-0.19514 -0.54569,-0.31493 -0.11965,-0.11976 -0.18054,-0.25887 -0.18477,-0.42711 -0.004,-0.16863 0.0503,-0.37784 0.15279,-0.6179 0.10274,-0.24063 0.25376,-0.51493 0.41483,-0.80038 0.16139,-0.28601 0.33226,-0.58228 0.46392,-0.8732 0.13192,-0.29137 0.22405,-0.5743 0.23386,-0.83494 0.01,-0.26072 -0.0674,-0.48857 -0.22865,-0.67374 -0.16103,-0.18481 -0.39629,-0.32213 -0.66893,-0.43332 -0.27202,-0.11093 -0.57791,-0.19589 -0.87296,-0.27813 l -0.67987,0.66575 c 0.29443,0.0821 0.57771,0.16198 0.80631,0.25519 0.22797,0.093 0.4034,0.19981 0.51089,0.32321 0.10724,0.12305 0.15557,0.26765 0.14899,0.44293 -0.007,0.17533 -0.072,0.39179 -0.1835,0.63817 -0.11168,0.24679 -0.27103,0.52572 -0.43341,0.8135 -0.1627,0.2883 -0.32852,0.58493 -0.45212,0.87438 -0.12379,0.29003 -0.20243,0.5694 -0.19581,0.82445 0.006,0.25556 0.10216,0.47534 0.27816,0.65161 0.17602,0.17631 0.42321,0.30523 0.70187,0.41136 0.27829,0.10599 0.58585,0.18851 0.87809,0.27032 0.29164,0.0816 0.56679,0.16371 0.78461,0.25947 0.21723,0.0955 0.37935,0.20655 0.47464,0.33362 0.0951,0.12671 0.13219,0.27583 0.1146,0.4582 -0.0177,0.18244 -0.0945,0.40736 -0.21454,0.65973 -0.12014,0.25276 -0.28333,0.53484 -0.44605,0.82443 -0.16304,0.29017 -0.32426,0.5872 -0.43885,0.87495 -0.11478,0.28837 -0.18111,0.56403 -0.1575,0.81297 0.0237,0.24931 0.13977,0.4601 0.32995,0.62779 0.19015,0.16763 0.44658,0.2899 0.73068,0.39149 0.28368,0.10145 0.59197,0.18069 0.88056,0.26244 0.28795,0.0816 0.5548,0.16628 0.76134,0.26471 0.20595,0.0982 0.35508,0.21123 0.43842,0.34222 0.0832,0.13068 0.10853,0.28616 0.0796,0.47598 -0.0289,0.18986 -0.11744,0.42237 -0.24532,0.68032 -0.12808,0.25839 -0.29539,0.54502 -0.45754,0.83605 -0.16246,0.29162 -0.31847,0.58712 -0.42308,0.87283 -0.10482,0.28635 -0.1545,0.55791 -0.11352,0.80029 0.0413,0.24265 0.17515,0.44412 0.3787,0.60342 0.2035,0.15917 0.46852,0.27456 0.75713,0.37212 0.28817,0.0974 0.5978,0.17551 0.88179,0.25758 0.28338,0.0819 0.54148,0.16879 0.73626,0.27001 0.19423,0.10096 0.32873,0.21753 0.40037,0.35272 0.0713,0.13493 0.0861,0.29744 0.0462,0.49469 -0.04,0.1974 -0.13907,0.43673 -0.27405,0.69988 -0.13522,0.2636 -0.30594,0.5529 -0.46654,0.84499 -0.16094,0.29268 -0.31028,0.58669 -0.40401,0.87002 -0.0939,0.28392 -0.12831,0.55202 -0.0695,0.7873 0.0589,0.23551 0.20991,0.42619 0.42564,0.57756 0.21597,0.15106 0.4898,0.26122 0.78204,0.35521 0.29179,0.0938 0.59932,0.17105 0.87784,0.25383 0.2779,0.0826 0.52663,0.17158 0.70928,0.27572 0.18214,0.10384 0.30336,0.22415 0.36348,0.36388 0.0602,0.13945 0.0638,0.3087 0.0127,0.5134 -0.0507,0.20473 -0.16146,0.45205 -0.30295,0.72007 -0.14165,0.2684 -0.31366,0.55886 -0.47182,0.85161 -0.15851,0.29339 -0.30063,0.58614 -0.38256,0.86672 -0.082,0.28113 -0.0981,0.54363 -0.0215,0.77134 0.0768,0.22782 0.24318,0.40955 0.47087,0.55298 0.1801,0.11342 0.39714,0.1998 0.62476,0.27707 -0.43223,0.28238 -0.92094,0.51831 -1.43146,0.67787 z"
       style="color:#000000;font-style:normal;font-variant:normal;font-weight:normal;font-stretch:normal;font-size:medium;line-height:normal;font-family:sans-serif;font-variant-ligatures:normal;font-variant-position:normal;font-variant-caps:normal;font-variant-numeric:normal;font-variant-alternates:normal;font-feature-settings:normal;text-indent:0;text-align:start;text-decoration:none;text-decoration-line:none;text-decoration-style:solid;text-decoration-color:#000000;letter-spacing:normal;word-spacing:normal;text-transform:none;writing-mode:lr-tb;direction:ltr;text-orientation:mixed;dominant-baseline:auto;baseline-shift:baseline;text-anchor:start;white-space:normal;shape-padding:0;clip-rule:nonzero;display:inline;overflow:visible;visibility:visible;opacity:1;isolation:auto;mix-blend-mode:normal;color-interpolation:sRGB;color-interpolation-filters:linearRGB;solid-color:#000000;solid-opacity:1;vector-effect:none;fill:#d42aff;fill-opacity:1;fill-rule:nonzero;stroke:none;stroke-width:1.05833328;stroke-linecap:butt;stroke-linejoin:miter;stroke-miterlimit:4;stroke-dasharray:none;stroke-dashoffset:0;stroke-opacity:1;paint-order:stroke fill markers;color-rendering:auto;image-rendering:auto;shape-rendering:auto;text-rendering:auto;enable-background:accumulate" />
    <g
       transform="matrix(-0.02139335,0.99977114,0.99977114,0.02139335,-108.53895,132.65363)"
       id="g2145">
      <path
         style="fill:none;stroke:#000000;stroke-width:0.26458332px;stroke-linecap:butt;stroke-linejoin:miter;stroke-opacity:1"
         d="m 49.369068,199.37879 -1.563724,-5.80813 v 0"
         id="path2139"
         inkscape:connector-curvature="0" />
      <path
         inkscape:connector-curvature="0"
         id="path2141"
         d="m 50.346796,199.40574 0.02436,-6.01489 v 0"
         style="fill:none;stroke:#000000;stroke-width:0.26458332px;stroke-linecap:butt;stroke-linejoin:miter;stroke-opacity:1" />
      <path
         style="fill:none;stroke:#000000;stroke-width:0.26458332px;stroke-linecap:butt;stroke-linejoin:miter;stroke-opacity:1"
         d="m 51.204559,199.40242 1.563724,-5.80813 v 0"
         id="path2143"
         inkscape:connector-curvature="0" />
    </g>
    <g
       id="g2153"
       transform="matrix(-0.24404077,-0.96976498,-0.96976498,0.24404077,315.46127,223.9805)">
      <path
         inkscape:connector-curvature="0"
         id="path2147"
         d="m 49.369068,199.37879 -1.563724,-5.80813 v 0"
         style="fill:none;stroke:#000000;stroke-width:0.26458332px;stroke-linecap:butt;stroke-linejoin:miter;stroke-opacity:1" />
      <path
         style="fill:none;stroke:#000000;stroke-width:0.26458332px;stroke-linecap:butt;stroke-linejoin:miter;stroke-opacity:1"
         d="m 50.346796,199.40574 0.02436,-6.01489 v 0"
         id="path2149"
         inkscape:connector-curvature="0" />
      <path
         inkscape:connector-curvature="0"
         id="path2151"
         d="m 51.204559,199.40242 1.563724,-5.80813 v 0"
         style="fill:none;stroke:#000000;stroke-width:0.26458332px;stroke-linecap:butt;stroke-linejoin:miter;stroke-opacity:1" />
    </g>
    <g
       transform="matrix(-0.49202795,0.8705794,0.8705794,0.49202795,6.2646263,103.87148)"
       id="g2161">
      <path
         style="fill:none;stroke:#000000;stroke-width:0.26458332px;stroke-linecap:butt;stroke-linejoin:miter;stroke-opacity:1"
         d="m 49.369068,199.37879 -1.563724,-5.80813 v 0"
         id="path2155"
         inkscape:connector-curvature="0" />
      <path
         inkscape:connector-curvature="0"
         id="path2157"
         d="m 50.346796,199.40574 0.02436,-6.01489 v 0"
         style="fill:none;stroke:#000000;stroke-width:0.26458332px;stroke-linecap:butt;stroke-linejoin:miter;stroke-opacity:1" />
      <path
         style="fill:none;stroke:#000000;stroke-width:0.26458332px;stroke-linecap:butt;stroke-linejoin:miter;stroke-opacity:1"
         d="m 51.204559,199.40242 1.563724,-5.80813 v 0"
         id="path2159"
         inkscape:connector-curvature="0" />
    </g>
    <text
       xml:space="preserve"
       style="font-style:normal;font-variant:normal;font-weight:normal;font-stretch:normal;font-size:3.52777767px;line-height:1.10000002;font-family:'CMU Sans Serif';-inkscape-font-specification:'CMU Sans Serif';font-variant-ligatures:normal;font-variant-caps:normal;font-variant-numeric:normal;font-feature-settings:normal;text-align:start;letter-spacing:0.26458332px;word-spacing:0px;writing-mode:lr-tb;text-anchor:start;fill:#000000;fill-opacity:1;stroke:none;stroke-width:0.26458332"
       x="32.006973"
       y="232.23328"
       id="text2165"><tspan
         sodipodi:role="line"
         id="tspan2163"
         x="32.006973"
         y="235.2312"
         style="stroke-width:0.26458332" /></text>
    <text
       xml:space="preserve"
       style="font-style:normal;font-variant:normal;font-weight:normal;font-stretch:normal;font-size:3.52777767px;line-height:1.10000002;font-family:'CMU Sans Serif';-inkscape-font-specification:'CMU Sans Serif';font-variant-ligatures:normal;font-variant-caps:normal;font-variant-numeric:normal;font-feature-settings:normal;text-align:start;letter-spacing:0.26458332px;word-spacing:0px;writing-mode:lr-tb;text-anchor:start;fill:#000000;fill-opacity:1;stroke:none;stroke-width:0.26458332"
       x="32.257664"
       y="232.86128"
       id="text2169"><tspan
         sodipodi:role="line"
         id="tspan2167"
         x="32.257664"
         y="232.86128"
         style="font-style:italic;font-size:11.28888893px;stroke-width:0.26458332">p</tspan></text>
    <text
       id="text2175"
       y="276.89166"
       x="146.7186"
       style="font-style:normal;font-variant:normal;font-weight:normal;font-stretch:normal;font-size:3.52777767px;line-height:1.10000002;font-family:'CMU Sans Serif';-inkscape-font-specification:'CMU Sans Serif';font-variant-ligatures:normal;font-variant-caps:normal;font-variant-numeric:normal;font-feature-settings:normal;text-align:start;letter-spacing:0.26458332px;word-spacing:0px;writing-mode:lr-tb;text-anchor:start;fill:#000000;fill-opacity:1;stroke:none;stroke-width:0.26458332"
       xml:space="preserve"><tspan
         style="font-style:normal;font-size:11.28888893px;stroke-width:0.26458332"
         y="276.89166"
         x="146.7186"
         id="tspan2173"
         sodipodi:role="line"><tspan
   style="font-size:64.99999762%;baseline-shift:super"
   id="tspan2177">1</tspan>H</tspan></text>
    <text
       id="text2181"
       y="242.41495"
       x="70.667992"
       style="font-style:normal;font-variant:normal;font-weight:normal;font-stretch:normal;font-size:3.52777767px;line-height:1.10000002;font-family:'CMU Sans Serif';-inkscape-font-specification:'CMU Sans Serif';font-variant-ligatures:normal;font-variant-caps:normal;font-variant-numeric:normal;font-feature-settings:normal;text-align:start;letter-spacing:0.26458332px;word-spacing:0px;writing-mode:lr-tb;text-anchor:start;fill:#000000;fill-opacity:1;stroke:none;stroke-width:0.26458332"
       xml:space="preserve"><tspan
         style="font-style:italic;font-size:11.28888893px;stroke-width:0.26458332"
         y="242.41495"
         x="70.667992"
         id="tspan2179"
         sodipodi:role="line">n</tspan></text>
    <text
       id="text2185"
       y="225.15547"
       x="68.071083"
       style="font-style:normal;font-variant:normal;font-weight:normal;font-stretch:normal;font-size:3.52777767px;line-height:1.10000002;font-family:'CMU Sans Serif';-inkscape-font-specification:'CMU Sans Serif';font-variant-ligatures:normal;font-variant-caps:normal;font-variant-numeric:normal;font-feature-settings:normal;text-align:start;letter-spacing:0.26458332px;word-spacing:0px;writing-mode:lr-tb;text-anchor:start;fill:#000000;fill-opacity:1;stroke:none;stroke-width:0.26458332"
       xml:space="preserve"><tspan
         style="font-style:italic;font-size:11.28888893px;stroke-width:0.26458332"
         y="225.15547"
         x="68.071083"
         id="tspan2183"
         sodipodi:role="line">e<tspan
   style="font-size:64.99999762%;baseline-shift:super"
   id="tspan2189">+</tspan></tspan></text>
    <text
       xml:space="preserve"
       style="font-style:normal;font-variant:normal;font-weight:normal;font-stretch:normal;font-size:3.52777767px;line-height:1.10000002;font-family:'CMU Sans Serif';-inkscape-font-specification:'CMU Sans Serif';font-variant-ligatures:normal;font-variant-caps:normal;font-variant-numeric:normal;font-feature-settings:normal;text-align:start;letter-spacing:0.26458332px;word-spacing:0px;writing-mode:lr-tb;text-anchor:start;fill:#000000;fill-opacity:1;stroke:none;stroke-width:0.26458332"
       x="100.34379"
       y="202.4583"
       id="text2195"><tspan
         sodipodi:role="line"
         id="tspan2193"
         x="100.34379"
         y="202.4583"
         style="font-style:italic;font-size:11.28888893px;stroke-width:0.26458332">e<tspan
   style="font-size:64.99999762%;baseline-shift:super"
   id="tspan2197">-</tspan></tspan></text>
    <circle
       style="opacity:1;fill:url(#radialGradient2407);fill-opacity:1;fill-rule:nonzero;stroke:none;stroke-width:0.79374999;stroke-linecap:butt;stroke-linejoin:miter;stroke-miterlimit:4;stroke-dasharray:3.17499994, 3.17499994;stroke-dashoffset:0;stroke-opacity:1;paint-order:stroke fill markers"
       id="circle2405"
       cx="6.5055804"
       cy="231.39229"
       r="5.0502334" />
    <g
       id="g2421"
       transform="translate(-18.885962,-13.895318)">
      <text
         xml:space="preserve"
         style="font-style:normal;font-variant:normal;font-weight:normal;font-stretch:normal;font-size:3.52777767px;line-height:1.10000002;font-family:'CMU Sans Serif';-inkscape-font-specification:'CMU Sans Serif';font-variant-ligatures:normal;font-variant-caps:normal;font-variant-numeric:normal;font-feature-settings:normal;text-align:start;letter-spacing:0.26458332px;word-spacing:0px;writing-mode:lr-tb;text-anchor:start;fill:#000000;fill-opacity:1;stroke:none;stroke-width:0.26458332"
         x="20.845257"
         y="247.08002"
         id="text2401"><tspan
           sodipodi:role="line"
           id="tspan2399"
           x="20.845257"
           y="247.08002"
           style="font-style:italic;font-size:11.28888893px;letter-spacing:-0.79374999px;stroke-width:0.26458332">v<tspan
   id="tspan2403"
   style="font-size:64.99999762%;letter-spacing:-0.79374999px;baseline-shift:sub">e</tspan></tspan></text>
      <path
         inkscape:connector-curvature="0"
         id="path2415"
         d="m 22.067061,241.32699 h 4.696993 v 0 0"
         style="fill:none;stroke:#000000;stroke-width:0.34395832;stroke-linecap:butt;stroke-linejoin:miter;stroke-miterlimit:4;stroke-dasharray:none;stroke-opacity:1" />
    </g>
    <g
       id="g3950">
      <path
         inkscape:connector-curvature="0"
         id="path3603"
         d="m 43.778749,230.95768 c 21.141018,-1.87089 23.573171,-7.48355 23.573171,-7.48355"
         style="fill:none;stroke:#000000;stroke-width:0.5291667;stroke-linecap:butt;stroke-linejoin:miter;stroke-miterlimit:4;stroke-dasharray:none;stroke-opacity:1" />
      <g
         id="g3939">
        <path
           inkscape:connector-curvature="0"
           id="path3945"
           style="fill:#000000;fill-opacity:1;fill-rule:evenodd;stroke:#000000;stroke-width:0.29765624;stroke-linejoin:round;stroke-opacity:1"
           d="m 65.116867,224.12081 3.07495,-0.94027 -1.730939,2.69043 c -0.01286,-0.80666 -0.557898,-1.51185 -1.344011,-1.75016 z" />
      </g>
    </g>
    <g
       id="g3958"
       transform="matrix(1,0,0,-1,0,461.91536)">
      <path
         style="fill:none;stroke:#000000;stroke-width:0.5291667;stroke-linecap:butt;stroke-linejoin:miter;stroke-miterlimit:4;stroke-dasharray:none;stroke-opacity:1"
         d="m 43.778749,230.95768 c 21.141018,-1.87089 23.573171,-7.48355 23.573171,-7.48355"
         id="path3952"
         inkscape:connector-curvature="0" />
      <g
         id="g3956">
        <path
           d="m 65.116867,224.12081 3.07495,-0.94027 -1.730939,2.69043 c -0.01286,-0.80666 -0.557898,-1.51185 -1.344011,-1.75016 z"
           style="fill:#000000;fill-opacity:1;fill-rule:evenodd;stroke:#000000;stroke-width:0.29765624;stroke-linejoin:round;stroke-opacity:1"
           id="path3954"
           inkscape:connector-curvature="0" />
      </g>
    </g>
    <text
       xml:space="preserve"
       style="font-style:normal;font-variant:normal;font-weight:normal;font-stretch:normal;font-size:3.52777767px;line-height:1.10000002;font-family:'CMU Sans Serif';-inkscape-font-specification:'CMU Sans Serif';font-variant-ligatures:normal;font-variant-caps:normal;font-variant-numeric:normal;font-feature-settings:normal;text-align:start;letter-spacing:0.26458332px;word-spacing:0px;writing-mode:lr-tb;text-anchor:start;fill:#000000;fill-opacity:1;stroke:none;stroke-width:0.26458332"
       x="-24.341667"
       y="200.16248"
       id="text3962"><tspan
         sodipodi:role="line"
         id="tspan3960"
         x="-24.341667"
         y="203.1604"
         style="stroke-width:0.26458332" /></text>
    <text
       xml:space="preserve"
       style="font-style:normal;font-variant:normal;font-weight:normal;font-stretch:normal;font-size:3.52777767px;line-height:1.10000002;font-family:'CMU Sans Serif';-inkscape-font-specification:'CMU Sans Serif';font-variant-ligatures:normal;font-variant-caps:normal;font-variant-numeric:normal;font-feature-settings:normal;text-align:start;letter-spacing:0.26458332px;word-spacing:0px;writing-mode:lr-tb;text-anchor:start;fill:#000000;fill-opacity:1;stroke:none;stroke-width:0.26458332"
       x="-64.822914"
       y="211.27498"
       id="text3966"><tspan
         sodipodi:role="line"
         id="tspan3964"
         x="-64.822914"
         y="214.2729"
         style="stroke-width:0.26458332" /></text>
    <text
       id="text920"
       y="181.39983"
       x="92.450371"
       style="font-style:normal;font-variant:normal;font-weight:normal;font-stretch:normal;font-size:3.52777767px;line-height:1.10000002;font-family:'CMU Sans Serif';-inkscape-font-specification:'CMU Sans Serif';font-variant-ligatures:normal;font-variant-caps:normal;font-variant-numeric:normal;font-feature-settings:normal;text-align:start;letter-spacing:0.26458332px;word-spacing:0px;writing-mode:lr-tb;text-anchor:start;fill:#000000;fill-opacity:1;stroke:none;stroke-width:0.26458332"
       xml:space="preserve"><tspan
         style="font-style:normal;font-size:11.28888893px;stroke-width:0.26458332"
         y="181.39983"
         x="92.450371"
         id="tspan918"
         sodipodi:role="line">γ</tspan></text>
    <text
       xml:space="preserve"
       style="font-style:normal;font-variant:normal;font-weight:normal;font-stretch:normal;font-size:3.52777767px;line-height:1.10000002;font-family:'CMU Sans Serif';-inkscape-font-specification:'CMU Sans Serif';font-variant-ligatures:normal;font-variant-caps:normal;font-variant-numeric:normal;font-feature-settings:normal;text-align:start;letter-spacing:0.26458332px;word-spacing:0px;writing-mode:lr-tb;text-anchor:start;fill:#000000;fill-opacity:1;stroke:none;stroke-width:0.26458332"
       x="98.800369"
       y="234.05191"
       id="text924"><tspan
         sodipodi:role="line"
         id="tspan922"
         x="98.800369"
         y="234.05191"
         style="font-style:normal;font-size:11.28888893px;stroke-width:0.26458332">γ</tspan></text>
    <text
       id="text928"
       y="234.44878"
       x="155.81807"
       style="font-style:normal;font-variant:normal;font-weight:normal;font-stretch:normal;font-size:3.52777767px;line-height:1.10000002;font-family:'CMU Sans Serif';-inkscape-font-specification:'CMU Sans Serif';font-variant-ligatures:normal;font-variant-caps:normal;font-variant-numeric:normal;font-feature-settings:normal;text-align:start;letter-spacing:0.26458332px;word-spacing:0px;writing-mode:lr-tb;text-anchor:start;fill:#000000;fill-opacity:1;stroke:none;stroke-width:0.26458332"
       xml:space="preserve"><tspan
         style="font-style:normal;font-size:11.28888893px;stroke-width:0.26458332"
         y="234.44878"
         x="155.81807"
         id="tspan926"
         sodipodi:role="line">γ</tspan></text>
  </g>
</svg>
